999
dxfrw 0.6.3
  0
SECTION
  2
HEADER
  9
$ACADVER
  1
AC1021
  9
$DWGCODEPAGE
  3
ANSI_1250
  9
$INSBASE
 10
0
 20
0
 30
0
  9
$EXTMIN
 10
10000000000
 20
10000000000
 30
0
  9
$EXTMAX
 10
-10000000000
 20
-10000000000
 30
0
  9
$LIMMIN
 10
0
 20
0
  9
$LIMMAX
 10
12
 20
9
  9
$ORTHOMODE
 70
    0
  9
$REGENMODE
 70
    1
  9
$FILLMODE
 70
    1
  9
$QTEXTMODE
 70
    0
  9
$MIRRTEXT
 70
    1
  9
$LTSCALE
 40
1
  9
$ATTMODE
 70
    1
  9
$TEXTSIZE
 40
0.2
  9
$TRACEWID
 40
0.05
  9
$TEXTSTYLE
  7
Standard
  9
$CLAYER
  8
0
  9
$CELTYPE
  6
ByLayer
  9
$CECOLOR
 62
  256
  9
$CELTSCALE
 40
1
  9
$DISPSILH
 70
    0
  9
$DIMSCALE
 40
1
  9
$DIMASZ
 40
0.18
  9
$DIMEXO
 40
0.0625
  9
$DIMDLI
 40
0.38
  9
$DIMRND
 40
0
  9
$DIMDLE
 40
0
  9
$DIMEXE
 40
0.18
  9
$DIMTP
 40
0
  9
$DIMTM
 40
0
  9
$DIMTXT
 40
0.18
  9
$DIMCEN
 40
0.09
  9
$DIMTSZ
 40
0
  9
$DIMTOL
 70
    0
  9
$DIMLIM
 70
    0
  9
$DIMTIH
 70
    1
  9
$DIMTOH
 70
    1
  9
$DIMSE1
 70
    0
  9
$DIMSE2
 70
    0
  9
$DIMTAD
 70
    0
  9
$DIMZIN
 70
    0
  9
$DIMBLK
  1

  9
$DIMASO
 70
    1
  9
$DIMSHO
 70
    1
  9
$DIMPOST
  1

  9
$DIMAPOST
  1

  9
$DIMALT
 70
    0
  9
$DIMALTD
 70
    2
  9
$DIMALTF
 40
25.4
  9
$DIMLFAC
 40
1
  9
$DIMTOFL
 70
    0
  9
$DIMTVP
 40
0
  9
$DIMTIX
 70
    0
  9
$DIMSOXD
 70
    0
  9
$DIMSAH
 70
    0
  9
$DIMBLK1
  1

  9
$DIMBLK2
  1

  9
$DIMSTYLE
  2
Standard
  9
$DIMCLRD
 70
    0
  9
$DIMCLRE
 70
    0
  9
$DIMCLRT
 70
    0
  9
$DIMTFAC
 40
1
  9
$DIMGAP
 40
0.09
  9
$DIMJUST
 70
    0
  9
$DIMSD1
 70
    0
  9
$DIMSD2
 70
    0
  9
$DIMTOLJ
 70
    1
  9
$DIMTZIN
 70
    0
  9
$DIMALTZ
 70
    0
  9
$DIMALTTZ
 70
    0
  9
$DIMUPT
 70
    0
  9
$DIMDEC
 70
    4
  9
$DIMTDEC
 70
    4
  9
$DIMALTU
 70
    2
  9
$DIMALTTD
 70
    2
  9
$DIMTXSTY
  7
Standard
  9
$DIMAUNIT
 70
    0
  9
$DIMADEC
 70
    0
  9
$DIMALTRND
 40
0
  9
$DIMAZIN
 70
    0
  9
$DIMDSEP
 70
   46
  9
$DIMATFIT
 70
    3
  9
$DIMFRAC
 70
    0
  9
$DIMLDRBLK
  1

  9
$DIMLUNIT
 70
    2
  9
$DIMLWD
 70
   -2
  9
$DIMLWE
 70
   -2
  9
$DIMTMOVE
 70
    2
  9
$DIMFXL
 40
1
  9
$DIMFXLON
 70
    0
  9
$DIMJOGANG
 40
0.7854
  9
$DIMTFILL
 70
    0
  9
$DIMTFILLCLR
 70
    0
  9
$DIMARCSYM
 70
    0
  9
$DIMLTYPE
  6

  9
$DIMLTEX1
  6

  9
$DIMLTEX2
  6

  9
$LUNITS
 70
    2
  9
$LUPREC
 70
    3
  9
$SKETCHINC
 40
0.1
  9
$FILLETRAD
 40
0.5
  9
$AUNITS
 70
    0
  9
$AUPREC
 70
    0
  9
$MENU
  1
.
  9
$ELEVATION
 40
0
  9
$PELEVATION
 40
0
  9
$THICKNESS
 40
0
  9
$LIMCHECK
 70
    0
  9
$CHAMFERA
 40
0.5
  9
$CHAMFERB
 40
0.5
  9
$CHAMFERC
 40
1
  9
$CHAMFERD
 40
0
  9
$SKPOLY
 70
    0
  9
$USRTIMER
 70
    1
  9
$ANGBASE
 50
0
  9
$ANGDIR
 70
    0
  9
$PDMODE
 70
    0
  9
$PDSIZE
 40
0
  9
$PLINEWID
 40
0
  9
$SPLFRAME
 70
    0
  9
$SPLINETYPE
 70
    6
  9
$SPLINESEGS
 70
    8
  9
$HANDSEED
  5
20000
  9
$SURFTAB1
 70
    6
  9
$SURFTAB2
 70
    6
  9
$SURFTYPE
 70
    6
  9
$SURFU
 70
    6
  9
$SURFV
 70
    6
  9
$UCSBASE
  2

  9
$UCSNAME
  2

  9
$UCSORG
 10
0
 20
0
 30
0
  9
$UCSXDIR
 10
1
 20
0
 30
0
  9
$UCSYDIR
 10
0
 20
1
 30
0
  9
$UCSORTHOREF
  2

  9
$UCSORTHOVIEW
 70
    0
  9
$UCSORGTOP
 10
0
 20
0
 30
0
  9
$UCSORGBOTTOM
 10
0
 20
0
 30
0
  9
$UCSORGLEFT
 10
0
 20
0
 30
0
  9
$UCSORGRIGHT
 10
0
 20
0
 30
0
  9
$UCSORGFRONT
 10
0
 20
0
 30
0
  9
$UCSORGBACK
 10
0
 20
0
 30
0
  9
$PUCSBASE
  2

  9
$PUCSNAME
  2

  9
$PUCSORG
 10
0
 20
0
 30
0
  9
$PUCSXDIR
 10
1
 20
0
 30
0
  9
$PUCSYDIR
 10
0
 20
1
 30
0
  9
$PUCSORTHOREF
  2

  9
$PUCSORTHOVIEW
 70
    0
  9
$PUCSORGTOP
 10
0
 20
0
 30
0
  9
$PUCSORGBOTTOM
 10
0
 20
0
 30
0
  9
$PUCSORGLEFT
 10
0
 20
0
 30
0
  9
$PUCSORGRIGHT
 10
0
 20
0
 30
0
  9
$PUCSORGFRONT
 10
0
 20
0
 30
0
  9
$PUCSORGBACK
 10
0
 20
0
 30
0
  9
$USERI1
 70
    0
  9
$USERI2
 70
    0
  9
$USERI3
 70
    0
  9
$USERI4
 70
    0
  9
$USERI5
 70
    0
  9
$USERR1
 40
0
  9
$USERR2
 40
0
  9
$USERR3
 40
0
  9
$USERR4
 40
0
  9
$USERR5
 40
0
  9
$WORLDVIEW
 70
    1
  9
$SHADEDGE
 70
    3
  9
$SHADEDIF
 70
   70
  9
$TILEMODE
 70
    1
  9
$MAXACTVP
 70
   64
  9
$PINSBASE
 10
0
 20
0
 30
0
  9
$PLIMCHECK
 70
    0
  9
$PEXTMIN
 10
1e+20
 20
1e+20
 30
1e+20
  9
$PEXTMAX
 10
-1e+20
 20
-1e+20
 30
-1e+20
  9
$GRIDMODE
 70
    0
  9
$SNAPSTYLE
 70
    0
  9
$PLIMMIN
 10
0
 20
0
  9
$PLIMMAX
 10
12
 20
9
  9
$UNITMODE
 70
    0
  9
$VISRETAIN
 70
    1
  9
$PLINEGEN
 70
    0
  9
$PSLTSCALE
 70
    1
  9
$TREEDEPTH
 70
 3020
  9
$CMLSTYLE
  2
Standard
  9
$CMLJUST
 70
    0
  9
$CMLSCALE
 40
1
  9
$PROXYGRAPHICS
 70
    1
  9
$MEASUREMENT
 70
    0
  9
$CELWEIGHT
370
   -1
  9
$ENDCAPS
280
    0
  9
$JOINSTYLE
280
    0
  9
$LWDISPLAY
290
    0
  9
$INSUNITS
 70
    4
  9
$HYPERLINKBASE
  1

  9
$STYLESHEET
  1

  9
$XEDIT
290
    1
  9
$CEPSNTYPE
380
    0
  9
$PSTYLEMODE
290
    1
  9
$EXTNAMES
290
    1
  9
$PSVPSCALE
 40
0
  9
$OLESTARTUP
290
    0
  9
$SORTENTS
280
  127
  9
$INDEXCTL
280
    0
  9
$HIDETEXT
280
    1
  9
$XCLIPFRAME
290
    0
  9
$HALOGAP
280
    0
  9
$OBSCOLOR
 70
  257
  9
$OBSLTYPE
280
    0
  9
$INTERSECTIONDISPLAY
280
    0
  9
$INTERSECTIONCOLOR
 70
  257
  9
$DIMASSOC
280
    2
  9
$PROJECTNAME
  1

  9
$CAMERADISPLAY
290
    0
  9
$LENSLENGTH
 40
50
  9
$CAMERAHEIGHT
 40
0
  9
$STEPSPERSEC
 40
2
  9
$STEPSIZE
 40
50
  9
$3DDWFPREC
 40
2
  9
$PSOLWIDTH
 40
5
  9
$PSOLHEIGHT
 40
80
  9
$LOFTANG1
 40
1.570796326794897
  9
$LOFTANG2
 40
1.570796326794897
  9
$LOFTMAG1
 40
0
  9
$LOFTMAG2
 40
0
  9
$LOFTPARAM
 70
    7
  9
$LOFTNORMALS
280
    1
  9
$LATITUDE
 40
1
  9
$LONGITUDE
 40
1
  9
$NORTHDIRECTION
 40
0
  9
$TIMEZONE
 70
-8000
  9
$LIGHTGLYPHDISPLAY
280
    1
  9
$TILEMODELIGHTSYNCH
280
    1
  9
$SOLIDHIST
280
    1
  9
$SHOWHIST
280
    1
  9
$DWFFRAME
280
    2
  9
$DGNFRAME
280
    0
  9
$REALWORLDSCALE
290
    1
  9
$INTERFERECOLOR
 62
    1
  9
$CSHADOW
280
    0
  9
$SHADOWPLANELOCATION
 40
0
  0
ENDSEC
  0
SECTION
  2
CLASSES
  0
ENDSEC
  0
SECTION
  2
TABLES
  0
TABLE
  2
VPORT
  5
8
330
0
100
AcDbSymbolTable
 70
    1
  0
VPORT
  5
31
330
2
100
AcDbSymbolTableRecord
100
AcDbViewportTableRecord
  2
*ACTIVE
 70
    0
 10
0
 20
0
 11
1
 21
1
 12
447.5759663456776
 22
78.52983933911347
 13
0
 23
0
 14
10
 24
10
 15
10
 25
10
 16
0
 26
0
 36
1
 17
0
 27
0
 37
0
 40
361.3254967344602
 41
1.796092796092796
 42
50
 43
0
 44
0
 50
0
 51
0
 71
    0
 72
  100
 73
    1
 74
    3
 75
    0
 76
    0
 77
    0
 78
    0
281
    0
 65
    1
110
0
120
0
130
0
111
1
121
0
131
0
112
0
122
1
132
0
 79
    0
146
0
348
10020
 60
    7
 61
    5
292
1
282
    1
141
0
142
0
 63
  250
421
3358443
  0
ENDTAB
  0
TABLE
  2
LTYPE
  5
5
330
0
100
AcDbSymbolTable
 70
    4
  0
LTYPE
  5
14
330
5
100
AcDbSymbolTableRecord
100
AcDbLinetypeTableRecord
  2
ByBlock
 70
    0
  3

 72
   65
 73
    0
 40
0
  0
LTYPE
  5
15
330
5
100
AcDbSymbolTableRecord
100
AcDbLinetypeTableRecord
  2
ByLayer
 70
    0
  3

 72
   65
 73
    0
 40
0
  0
LTYPE
  5
16
330
5
100
AcDbSymbolTableRecord
100
AcDbLinetypeTableRecord
  2
Continuous
 70
    0
  3
Solid line
 72
   65
 73
    0
 40
0
  0
LTYPE
  5
32
330
5
100
AcDbSymbolTableRecord
100
AcDbLinetypeTableRecord
  2
DOT
 70
    0
  3
Dot . . . . . . . . . . . . . . . . . . . . . .
 72
   65
 73
    2
 40
6.35
 49
0
 74
    0
 49
-6.35
 74
    0
  0
LTYPE
  5
33
330
5
100
AcDbSymbolTableRecord
100
AcDbLinetypeTableRecord
  2
DOTTINY
 70
    0
  3
Dot (.15x) .....................................
 72
   65
 73
    2
 40
0.9525
 49
0
 74
    0
 49
-0.9525
 74
    0
  0
LTYPE
  5
34
330
5
100
AcDbSymbolTableRecord
100
AcDbLinetypeTableRecord
  2
DOT2
 70
    0
  3
Dot (.5x) .....................................
 72
   65
 73
    2
 40
3.175
 49
0
 74
    0
 49
-3.175
 74
    0
  0
LTYPE
  5
35
330
5
100
AcDbSymbolTableRecord
100
AcDbLinetypeTableRecord
  2
DOTX2
 70
    0
  3
Dot (2x) .  .  .  .  .  .  .  .  .  .  .  .  .
 72
   65
 73
    2
 40
12.7
 49
0
 74
    0
 49
-12.7
 74
    0
  0
LTYPE
  5
36
330
5
100
AcDbSymbolTableRecord
100
AcDbLinetypeTableRecord
  2
DASHED
 70
    0
  3
Dashed _ _ _ _ _ _ _ _ _ _ _ _ _ _ _ _ _
 72
   65
 73
    2
 40
19.05
 49
12.7
 74
    0
 49
-6.35
 74
    0
  0
LTYPE
  5
37
330
5
100
AcDbSymbolTableRecord
100
AcDbLinetypeTableRecord
  2
DASHEDTINY
 70
    0
  3
Dashed (.15x) _ _ _ _ _ _ _ _ _ _ _ _ _ _ _ _ _
 72
   65
 73
    2
 40
2.8575
 49
1.905
 74
    0
 49
-0.9525
 74
    0
  0
LTYPE
  5
38
330
5
100
AcDbSymbolTableRecord
100
AcDbLinetypeTableRecord
  2
DASHED2
 70
    0
  3
Dashed (.5x) _ _ _ _ _ _ _ _ _ _ _ _ _ _ _ _ _
 72
   65
 73
    2
 40
9.524999999999999
 49
6.35
 74
    0
 49
-3.175
 74
    0
  0
LTYPE
  5
39
330
5
100
AcDbSymbolTableRecord
100
AcDbLinetypeTableRecord
  2
DASHEDX2
 70
    0
  3
Dashed (2x) ____  ____  ____  ____  ____  ___
 72
   65
 73
    2
 40
38.09999999999999
 49
25.4
 74
    0
 49
-12.7
 74
    0
  0
LTYPE
  5
3A
330
5
100
AcDbSymbolTableRecord
100
AcDbLinetypeTableRecord
  2
DASHDOT
 70
    0
  3
Dash dot __ . __ . __ . __ . __ . __ . __ . __
 72
   65
 73
    4
 40
25.4
 49
12.7
 74
    0
 49
-6.35
 74
    0
 49
0
 74
    0
 49
-6.35
 74
    0
  0
LTYPE
  5
3B
330
5
100
AcDbSymbolTableRecord
100
AcDbLinetypeTableRecord
  2
DASHDOTTINY
 70
    0
  3
Dash dot (.15x) _._._._._._._._._._._._._._._.
 72
   65
 73
    4
 40
3.81
 49
1.905
 74
    0
 49
-0.9525
 74
    0
 49
0
 74
    0
 49
-0.9525
 74
    0
  0
LTYPE
  5
3C
330
5
100
AcDbSymbolTableRecord
100
AcDbLinetypeTableRecord
  2
DASHDOT2
 70
    0
  3
Dash dot (.5x) _._._._._._._._._._._._._._._.
 72
   65
 73
    4
 40
12.7
 49
6.35
 74
    0
 49
-3.175
 74
    0
 49
0
 74
    0
 49
-3.175
 74
    0
  0
LTYPE
  5
3D
330
5
100
AcDbSymbolTableRecord
100
AcDbLinetypeTableRecord
  2
DASHDOTX2
 70
    0
  3
Dash dot (2x) ____  .  ____  .  ____  .  ___
 72
   65
 73
    4
 40
50.8
 49
25.4
 74
    0
 49
-12.7
 74
    0
 49
0
 74
    0
 49
-12.7
 74
    0
  0
LTYPE
  5
3E
330
5
100
AcDbSymbolTableRecord
100
AcDbLinetypeTableRecord
  2
DIVIDE
 70
    0
  3
Divide ____ . . ____ . . ____ . . ____ . . ____
 72
   65
 73
    6
 40
31.75
 49
12.7
 74
    0
 49
-6.35
 74
    0
 49
0
 74
    0
 49
-6.35
 74
    0
 49
0
 74
    0
 49
-6.35
 74
    0
  0
LTYPE
  5
3F
330
5
100
AcDbSymbolTableRecord
100
AcDbLinetypeTableRecord
  2
DIVIDETINY
 70
    0
  3
Divide (.15x) __..__..__..__..__..__..__..__.._
 72
   65
 73
    6
 40
4.7625
 49
1.905
 74
    0
 49
-0.9525
 74
    0
 49
0
 74
    0
 49
-0.9525
 74
    0
 49
0
 74
    0
 49
-0.9525
 74
    0
  0
LTYPE
  5
40
330
5
100
AcDbSymbolTableRecord
100
AcDbLinetypeTableRecord
  2
DIVIDE2
 70
    0
  3
Divide (.5x) __..__..__..__..__..__..__..__.._
 72
   65
 73
    6
 40
15.875
 49
6.35
 74
    0
 49
-3.175
 74
    0
 49
0
 74
    0
 49
-3.175
 74
    0
 49
0
 74
    0
 49
-3.175
 74
    0
  0
LTYPE
  5
41
330
5
100
AcDbSymbolTableRecord
100
AcDbLinetypeTableRecord
  2
DIVIDEX2
 70
    0
  3
Divide (2x) ________  .  .  ________  .  .  _
 72
   65
 73
    6
 40
63.5
 49
25.4
 74
    0
 49
-12.7
 74
    0
 49
0
 74
    0
 49
-12.7
 74
    0
 49
0
 74
    0
 49
-12.7
 74
    0
  0
LTYPE
  5
42
330
5
100
AcDbSymbolTableRecord
100
AcDbLinetypeTableRecord
  2
BORDER
 70
    0
  3
Border __ __ . __ __ . __ __ . __ __ . __ __ .
 72
   65
 73
    6
 40
44.45
 49
12.7
 74
    0
 49
-6.35
 74
    0
 49
12.7
 74
    0
 49
-6.35
 74
    0
 49
0
 74
    0
 49
-6.35
 74
    0
  0
LTYPE
  5
43
330
5
100
AcDbSymbolTableRecord
100
AcDbLinetypeTableRecord
  2
BORDERTINY
 70
    0
  3
Border (.15x) __.__.__.__.__.__.__.__.__.__.__.
 72
   65
 73
    6
 40
6.6675
 49
1.905
 74
    0
 49
-0.9525
 74
    0
 49
1.905
 74
    0
 49
-0.9525
 74
    0
 49
0
 74
    0
 49
-0.9525
 74
    0
  0
LTYPE
  5
44
330
5
100
AcDbSymbolTableRecord
100
AcDbLinetypeTableRecord
  2
BORDER2
 70
    0
  3
Border (.5x) __.__.__.__.__.__.__.__.__.__.__.
 72
   65
 73
    6
 40
22.225
 49
6.35
 74
    0
 49
-3.175
 74
    0
 49
6.35
 74
    0
 49
-3.175
 74
    0
 49
0
 74
    0
 49
-3.175
 74
    0
  0
LTYPE
  5
45
330
5
100
AcDbSymbolTableRecord
100
AcDbLinetypeTableRecord
  2
BORDERX2
 70
    0
  3
Border (2x) ____  ____  .  ____  ____  .  ___
 72
   65
 73
    6
 40
88.89999999999999
 49
25.4
 74
    0
 49
-12.7
 74
    0
 49
25.4
 74
    0
 49
-12.7
 74
    0
 49
0
 74
    0
 49
-12.7
 74
    0
  0
LTYPE
  5
46
330
5
100
AcDbSymbolTableRecord
100
AcDbLinetypeTableRecord
  2
CENTER
 70
    0
  3
Center ____ _ ____ _ ____ _ ____ _ ____ _ ____
 72
   65
 73
    4
 40
50.8
 49
31.75
 74
    0
 49
-6.35
 74
    0
 49
6.35
 74
    0
 49
-6.35
 74
    0
  0
LTYPE
  5
47
330
5
100
AcDbSymbolTableRecord
100
AcDbLinetypeTableRecord
  2
CENTERTINY
 70
    0
  3
Center (.15x) ___ _ ___ _ ___ _ ___ _ ___ _ ___
 72
   65
 73
    4
 40
7.619999999999999
 49
4.7625
 74
    0
 49
-0.9525
 74
    0
 49
0.9525
 74
    0
 49
-0.9525
 74
    0
  0
LTYPE
  5
48
330
5
100
AcDbSymbolTableRecord
100
AcDbLinetypeTableRecord
  2
CENTER2
 70
    0
  3
Center (.5x) ___ _ ___ _ ___ _ ___ _ ___ _ ___
 72
   65
 73
    4
 40
28.575
 49
19.05
 74
    0
 49
-3.175
 74
    0
 49
3.175
 74
    0
 49
-3.175
 74
    0
  0
LTYPE
  5
49
330
5
100
AcDbSymbolTableRecord
100
AcDbLinetypeTableRecord
  2
CENTERX2
 70
    0
  3
Center (2x) ________  __  ________  __  _____
 72
   65
 73
    4
 40
101.6
 49
63.5
 74
    0
 49
-12.7
 74
    0
 49
12.7
 74
    0
 49
-12.7
 74
    0
  0
ENDTAB
  0
TABLE
  2
LAYER
  5
2
330
0
100
AcDbSymbolTable
 70
    1
  0
LAYER
  5
10
330
2
100
AcDbSymbolTableRecord
100
AcDbLayerTableRecord
  2
0
 70
    0
 62
    7
  6
CONTINUOUS
370
   -3
390
F
  0
ENDTAB
  0
TABLE
  2
STYLE
  5
3
330
0
100
AcDbSymbolTable
 70
    3
  0
STYLE
  5
4A
330
2
100
AcDbSymbolTableRecord
100
AcDbTextStyleTableRecord
  2
Standard
 70
    0
 40
0
 41
1
 50
0
 71
    0
 42
1
  3
txt
  4

  0
ENDTAB
  0
TABLE
  2
VIEW
  5
6
330
0
100
AcDbSymbolTable
 70
    0
  0
ENDTAB
  0
TABLE
  2
UCS
  5
7
330
0
100
AcDbSymbolTable
 70
    0
  0
ENDTAB
  0
TABLE
  2
APPID
  5
9
330
0
100
AcDbSymbolTable
 70
    1
  0
APPID
  5
12
330
9
100
AcDbSymbolTableRecord
100
AcDbRegAppTableRecord
  2
ACAD
 70
    0
  0
APPID
  5
4B
330
9
100
AcDbSymbolTableRecord
100
AcDbRegAppTableRecord
  2
LibreCad
 70
    0
  0
ENDTAB
  0
TABLE
  2
DIMSTYLE
  5
A
330
0
100
AcDbSymbolTable
 70
    1
100
AcDbDimStyleTable
 71
    1
  0
DIMSTYLE
105
4C
330
A
100
AcDbSymbolTableRecord
100
AcDbDimStyleTableRecord
  2
Standard
 70
    0
 40
1
 41
0.18
 42
0.0625
 43
0.38
 44
0.18
 45
0
 46
0
 47
0
 48
0
 49
1
140
0.18
141
0.09
142
0
143
25.4
144
1
145
0
146
1
147
0.09
148
0
 71
    0
 72
    0
 73
    1
 74
    1
 75
    0
 76
    0
 77
    0
 78
    0
 79
    0
170
    0
171
    2
172
    0
173
    0
174
    0
175
    0
176
    0
177
    0
178
    0
179
    0
271
    4
272
    4
273
    2
274
    2
275
    0
276
    0
277
    2
278
   46
279
    0
280
    0
281
    0
282
    0
283
    1
284
    0
285
    0
286
    0
288
    0
289
    3
340
Standard
341

371
   -2
372
   -2
  0
ENDTAB
  0
TABLE
  2
BLOCK_RECORD
  5
1
330
0
100
AcDbSymbolTable
 70
    2
  0
BLOCK_RECORD
  5
1F
330
1
100
AcDbSymbolTableRecord
100
AcDbBlockTableRecord
  2
*Model_Space
 70
    0
280
    1
281
    0
  0
BLOCK_RECORD
  5
1E
330
1
100
AcDbSymbolTableRecord
100
AcDbBlockTableRecord
  2
*Paper_Space
 70
    0
280
    1
281
    0
  0
BLOCK_RECORD
  5
4D
330
1
100
AcDbSymbolTableRecord
100
AcDbBlockTableRecord
  2
block 45
 70
    0
280
    1
281
    0
  0
BLOCK_RECORD
  5
50
330
1
100
AcDbSymbolTableRecord
100
AcDbBlockTableRecord
  2
block 46
 70
    0
280
    1
281
    0
  0
BLOCK_RECORD
  5
53
330
1
100
AcDbSymbolTableRecord
100
AcDbBlockTableRecord
  2
block 48
 70
    0
280
    1
281
    0
  0
BLOCK_RECORD
  5
56
330
1
100
AcDbSymbolTableRecord
100
AcDbBlockTableRecord
  2
block 49
 70
    0
280
    1
281
    0
  0
BLOCK_RECORD
  5
59
330
1
100
AcDbSymbolTableRecord
100
AcDbBlockTableRecord
  2
block 50
 70
    0
280
    1
281
    0
  0
BLOCK_RECORD
  5
5C
330
1
100
AcDbSymbolTableRecord
100
AcDbBlockTableRecord
  2
block 51
 70
    0
280
    1
281
    0
  0
BLOCK_RECORD
  5
5F
330
1
100
AcDbSymbolTableRecord
100
AcDbBlockTableRecord
  2
block 52
 70
    0
280
    1
281
    0
  0
BLOCK_RECORD
  5
62
330
1
100
AcDbSymbolTableRecord
100
AcDbBlockTableRecord
  2
block 53
 70
    0
280
    1
281
    0
  0
BLOCK_RECORD
  5
65
330
1
100
AcDbSymbolTableRecord
100
AcDbBlockTableRecord
  2
block 54
 70
    0
280
    1
281
    0
  0
BLOCK_RECORD
  5
68
330
1
100
AcDbSymbolTableRecord
100
AcDbBlockTableRecord
  2
block 55
 70
    0
280
    1
281
    0
  0
BLOCK_RECORD
  5
6B
330
1
100
AcDbSymbolTableRecord
100
AcDbBlockTableRecord
  2
block 56
 70
    0
280
    1
281
    0
  0
BLOCK_RECORD
  5
6E
330
1
100
AcDbSymbolTableRecord
100
AcDbBlockTableRecord
  2
block 57
 70
    0
280
    1
281
    0
  0
BLOCK_RECORD
  5
71
330
1
100
AcDbSymbolTableRecord
100
AcDbBlockTableRecord
  2
block 58
 70
    0
280
    1
281
    0
  0
BLOCK_RECORD
  5
74
330
1
100
AcDbSymbolTableRecord
100
AcDbBlockTableRecord
  2
block 59
 70
    0
280
    1
281
    0
  0
BLOCK_RECORD
  5
77
330
1
100
AcDbSymbolTableRecord
100
AcDbBlockTableRecord
  2
block 60
 70
    0
280
    1
281
    0
  0
BLOCK_RECORD
  5
7A
330
1
100
AcDbSymbolTableRecord
100
AcDbBlockTableRecord
  2
block 47
 70
    0
280
    1
281
    0
  0
BLOCK_RECORD
  5
7D
330
1
100
AcDbSymbolTableRecord
100
AcDbBlockTableRecord
  2
block 3
 70
    0
280
    1
281
    0
  0
BLOCK_RECORD
  5
80
330
1
100
AcDbSymbolTableRecord
100
AcDbBlockTableRecord
  2
block 4
 70
    0
280
    1
281
    0
  0
BLOCK_RECORD
  5
83
330
1
100
AcDbSymbolTableRecord
100
AcDbBlockTableRecord
  2
block 5
 70
    0
280
    1
281
    0
  0
BLOCK_RECORD
  5
86
330
1
100
AcDbSymbolTableRecord
100
AcDbBlockTableRecord
  2
block 6
 70
    0
280
    1
281
    0
  0
BLOCK_RECORD
  5
89
330
1
100
AcDbSymbolTableRecord
100
AcDbBlockTableRecord
  2
block 7
 70
    0
280
    1
281
    0
  0
BLOCK_RECORD
  5
8C
330
1
100
AcDbSymbolTableRecord
100
AcDbBlockTableRecord
  2
block 8
 70
    0
280
    1
281
    0
  0
BLOCK_RECORD
  5
8F
330
1
100
AcDbSymbolTableRecord
100
AcDbBlockTableRecord
  2
block 9
 70
    0
280
    1
281
    0
  0
BLOCK_RECORD
  5
92
330
1
100
AcDbSymbolTableRecord
100
AcDbBlockTableRecord
  2
block 10
 70
    0
280
    1
281
    0
  0
BLOCK_RECORD
  5
95
330
1
100
AcDbSymbolTableRecord
100
AcDbBlockTableRecord
  2
block 11
 70
    0
280
    1
281
    0
  0
BLOCK_RECORD
  5
98
330
1
100
AcDbSymbolTableRecord
100
AcDbBlockTableRecord
  2
block 12
 70
    0
280
    1
281
    0
  0
BLOCK_RECORD
  5
9B
330
1
100
AcDbSymbolTableRecord
100
AcDbBlockTableRecord
  2
block 13
 70
    0
280
    1
281
    0
  0
BLOCK_RECORD
  5
9E
330
1
100
AcDbSymbolTableRecord
100
AcDbBlockTableRecord
  2
block 14
 70
    0
280
    1
281
    0
  0
BLOCK_RECORD
  5
A1
330
1
100
AcDbSymbolTableRecord
100
AcDbBlockTableRecord
  2
block 15
 70
    0
280
    1
281
    0
  0
BLOCK_RECORD
  5
A4
330
1
100
AcDbSymbolTableRecord
100
AcDbBlockTableRecord
  2
block 16
 70
    0
280
    1
281
    0
  0
BLOCK_RECORD
  5
A7
330
1
100
AcDbSymbolTableRecord
100
AcDbBlockTableRecord
  2
block 17
 70
    0
280
    1
281
    0
  0
BLOCK_RECORD
  5
AA
330
1
100
AcDbSymbolTableRecord
100
AcDbBlockTableRecord
  2
block 18
 70
    0
280
    1
281
    0
  0
BLOCK_RECORD
  5
AD
330
1
100
AcDbSymbolTableRecord
100
AcDbBlockTableRecord
  2
block 19
 70
    0
280
    1
281
    0
  0
BLOCK_RECORD
  5
B0
330
1
100
AcDbSymbolTableRecord
100
AcDbBlockTableRecord
  2
block 20
 70
    0
280
    1
281
    0
  0
BLOCK_RECORD
  5
B3
330
1
100
AcDbSymbolTableRecord
100
AcDbBlockTableRecord
  2
block 21
 70
    0
280
    1
281
    0
  0
BLOCK_RECORD
  5
B6
330
1
100
AcDbSymbolTableRecord
100
AcDbBlockTableRecord
  2
block 22
 70
    0
280
    1
281
    0
  0
BLOCK_RECORD
  5
B9
330
1
100
AcDbSymbolTableRecord
100
AcDbBlockTableRecord
  2
block 23
 70
    0
280
    1
281
    0
  0
BLOCK_RECORD
  5
BC
330
1
100
AcDbSymbolTableRecord
100
AcDbBlockTableRecord
  2
block 24
 70
    0
280
    1
281
    0
  0
BLOCK_RECORD
  5
BF
330
1
100
AcDbSymbolTableRecord
100
AcDbBlockTableRecord
  2
block 25
 70
    0
280
    1
281
    0
  0
BLOCK_RECORD
  5
C2
330
1
100
AcDbSymbolTableRecord
100
AcDbBlockTableRecord
  2
block 26
 70
    0
280
    1
281
    0
  0
BLOCK_RECORD
  5
C5
330
1
100
AcDbSymbolTableRecord
100
AcDbBlockTableRecord
  2
block 27
 70
    0
280
    1
281
    0
  0
BLOCK_RECORD
  5
C8
330
1
100
AcDbSymbolTableRecord
100
AcDbBlockTableRecord
  2
block 28
 70
    0
280
    1
281
    0
  0
BLOCK_RECORD
  5
CB
330
1
100
AcDbSymbolTableRecord
100
AcDbBlockTableRecord
  2
block 29
 70
    0
280
    1
281
    0
  0
BLOCK_RECORD
  5
CE
330
1
100
AcDbSymbolTableRecord
100
AcDbBlockTableRecord
  2
block 30
 70
    0
280
    1
281
    0
  0
BLOCK_RECORD
  5
D1
330
1
100
AcDbSymbolTableRecord
100
AcDbBlockTableRecord
  2
block 31
 70
    0
280
    1
281
    0
  0
BLOCK_RECORD
  5
D4
330
1
100
AcDbSymbolTableRecord
100
AcDbBlockTableRecord
  2
block 32
 70
    0
280
    1
281
    0
  0
BLOCK_RECORD
  5
D7
330
1
100
AcDbSymbolTableRecord
100
AcDbBlockTableRecord
  2
block 33
 70
    0
280
    1
281
    0
  0
BLOCK_RECORD
  5
DA
330
1
100
AcDbSymbolTableRecord
100
AcDbBlockTableRecord
  2
block 34
 70
    0
280
    1
281
    0
  0
BLOCK_RECORD
  5
DD
330
1
100
AcDbSymbolTableRecord
100
AcDbBlockTableRecord
  2
block 35
 70
    0
280
    1
281
    0
  0
BLOCK_RECORD
  5
E0
330
1
100
AcDbSymbolTableRecord
100
AcDbBlockTableRecord
  2
block 36
 70
    0
280
    1
281
    0
  0
BLOCK_RECORD
  5
E3
330
1
100
AcDbSymbolTableRecord
100
AcDbBlockTableRecord
  2
block 37
 70
    0
280
    1
281
    0
  0
BLOCK_RECORD
  5
E6
330
1
100
AcDbSymbolTableRecord
100
AcDbBlockTableRecord
  2
block 38
 70
    0
280
    1
281
    0
  0
BLOCK_RECORD
  5
E9
330
1
100
AcDbSymbolTableRecord
100
AcDbBlockTableRecord
  2
block 39
 70
    0
280
    1
281
    0
  0
BLOCK_RECORD
  5
EC
330
1
100
AcDbSymbolTableRecord
100
AcDbBlockTableRecord
  2
block 40
 70
    0
280
    1
281
    0
  0
BLOCK_RECORD
  5
EF
330
1
100
AcDbSymbolTableRecord
100
AcDbBlockTableRecord
  2
block 41
 70
    0
280
    1
281
    0
  0
BLOCK_RECORD
  5
F2
330
1
100
AcDbSymbolTableRecord
100
AcDbBlockTableRecord
  2
block 42
 70
    0
280
    1
281
    0
  0
BLOCK_RECORD
  5
F5
330
1
100
AcDbSymbolTableRecord
100
AcDbBlockTableRecord
  2
block 43
 70
    0
280
    1
281
    0
  0
BLOCK_RECORD
  5
F8
330
1
100
AcDbSymbolTableRecord
100
AcDbBlockTableRecord
  2
block 44
 70
    0
280
    1
281
    0
  0
BLOCK_RECORD
  5
FB
330
1
100
AcDbSymbolTableRecord
100
AcDbBlockTableRecord
  2
block 2
 70
    0
280
    1
281
    0
  0
ENDTAB
  0
ENDSEC
  0
SECTION
  2
BLOCKS
  0
BLOCK
  5
20
330
1F
100
AcDbEntity
  8
0
100
AcDbBlockBegin
  2
*Model_Space
 70
    0
 10
0
 20
0
 30
0
  3
*Model_Space
  1

  0
ENDBLK
  5
21
330
1F
100
AcDbEntity
  8
0
100
AcDbBlockEnd
  0
BLOCK
  5
1C
330
1B
100
AcDbEntity
  8
0
100
AcDbBlockBegin
  2
*Paper_Space
 70
    0
 10
0
 20
0
 30
0
  3
*Paper_Space
  1

  0
ENDBLK
  5
1D
330
1F
100
AcDbEntity
  8
0
100
AcDbBlockEnd
  0
BLOCK
  5
4E
330
4D
100
AcDbEntity
  8
0
100
AcDbBlockBegin
  2
block 45
 70
    0
 10
0
 20
0
  3
block 45
  1

  0
LWPOLYLINE
  5
FE
100
AcDbEntity
  8
0
  6
ByBlock
 62
    0
370
   -2
100
AcDbPolyline
 90
    8
 70
    0
 43
0
 10
50.34745409335542
 20
37.44076262466961
 10
50.34745409335542
 20
39.17756792356453
 10
50.34745409335542
 20
40.91438172927368
 10
52.33237868835691
 20
40.91438172927368
 10
52.82861090045874
 20
40.41815058052298
 10
52.82861090045874
 20
39.67379907231523
 10
52.33237868835691
 20
39.17756792356453
 10
50.34745409335542
 20
39.17756792356453
  0
ENDBLK
  5
4F
330
4D
100
AcDbEntity
  8
0
100
AcDbBlockEnd
  0
BLOCK
  5
51
330
50
100
AcDbEntity
  8
0
100
AcDbBlockBegin
  2
block 46
 70
    0
 10
0
 20
0
  3
block 46
  1

  0
LWPOLYLINE
  5
FF
100
AcDbEntity
  8
0
  6
ByBlock
 62
    0
370
   -2
100
AcDbPolyline
 90
    4
 70
    0
 43
0
 10
53.62257946243721
 20
39.67379907231523
 10
54.11881061118758
 20
39.17756792356453
 10
54.61504175993796
 20
39.67379907231523
 10
55.85561591008251
 20
39.67379907231523
  0
ENDBLK
  5
52
330
50
100
AcDbEntity
  8
0
100
AcDbBlockEnd
  0
BLOCK
  5
54
330
53
100
AcDbEntity
  8
0
100
AcDbBlockBegin
  2
block 48
 70
    0
 10
0
 20
0
  3
block 48
  1

  0
LINE
  5
100
100
AcDbEntity
  8
0
  6
ByBlock
 62
    0
370
   -2
100
AcDbLine
 10
58.13827898166355
 20
37.44076262466961
 11
58.13827898166355
 21
39.67379907231523
  0
ENDBLK
  5
55
330
53
100
AcDbEntity
  8
0
100
AcDbBlockEnd
  0
BLOCK
  5
57
330
56
100
AcDbEntity
  8
0
100
AcDbBlockBegin
  2
block 49
 70
    0
 10
0
 20
0
  3
block 49
  1

  0
LWPOLYLINE
  5
101
100
AcDbEntity
  8
0
  6
ByBlock
 62
    0
370
   -2
100
AcDbPolyline
 90
    5
 70
    0
 43
0
 10
58.13827898166355
 20
41.01362540697981
 10
58.23753010283148
 20
40.91438172927368
 10
58.13827898166387
 20
40.81513060810575
 10
58.03903530395774
 20
40.91438172927368
 10
58.13827898166355
 20
41.01362540697981
  0
ENDBLK
  5
58
330
56
100
AcDbEntity
  8
0
100
AcDbBlockEnd
  0
BLOCK
  5
5A
330
59
100
AcDbEntity
  8
0
100
AcDbBlockBegin
  2
block 50
 70
    0
 10
0
 20
0
  3
block 50
  1

  0
LWPOLYLINE
  5
102
100
AcDbEntity
  8
0
  6
ByBlock
 62
    0
370
   -2
100
AcDbPolyline
 90
    3
 70
    0
 43
0
 10
59.92470984114276
 20
39.67379907231523
 10
60.42094098989313
 20
39.17756792356453
 10
60.42094098989313
 20
37.44076262466961
  0
ENDBLK
  5
5B
330
59
100
AcDbEntity
  8
0
100
AcDbBlockEnd
  0
BLOCK
  5
5D
330
5C
100
AcDbEntity
  8
0
100
AcDbBlockBegin
  2
block 51
 70
    0
 10
0
 20
0
  3
block 51
  1

  0
LWPOLYLINE
  5
103
100
AcDbEntity
  8
0
  6
ByBlock
 62
    0
370
   -2
100
AcDbPolyline
 90
    5
 70
    0
 43
0
 10
60.42094098989313
 20
39.17756792356453
 10
60.91717213864351
 20
39.67379907231523
 10
61.90963549949571
 20
39.67379907231523
 10
62.40586664824608
 20
39.17756792356453
 10
62.40586664824608
 20
37.44076262466961
  0
ENDBLK
  5
5E
330
5C
100
AcDbEntity
  8
0
100
AcDbBlockEnd
  0
BLOCK
  5
60
330
5F
100
AcDbEntity
  8
0
100
AcDbBlockBegin
  2
block 52
 70
    0
 10
0
 20
0
  3
block 52
  1

  0
LWPOLYLINE
  5
104
100
AcDbEntity
  8
0
  6
ByBlock
 62
    0
370
   -2
100
AcDbPolyline
 90
    4
 70
    0
 43
0
 10
64.68852865647536
 20
40.91438172927368
 10
64.68852865647536
 20
37.93699377341966
 10
65.18475980522572
 20
37.44076262466961
 10
65.68099201732788
 20
37.44076262466961
  0
ENDBLK
  5
61
330
5F
100
AcDbEntity
  8
0
100
AcDbBlockEnd
  0
BLOCK
  5
63
330
62
100
AcDbEntity
  8
0
100
AcDbBlockBegin
  2
block 53
 70
    0
 10
0
 20
0
  3
block 53
  1

  0
LINE
  5
105
100
AcDbEntity
  8
0
  6
ByBlock
 62
    0
370
   -2
100
AcDbLine
 10
63.69606635897492
 20
39.67379907231523
 11
65.68099201732788
 21
39.67379907231523
  0
ENDBLK
  5
64
330
62
100
AcDbEntity
  8
0
100
AcDbBlockEnd
  0
BLOCK
  5
66
330
65
100
AcDbEntity
  8
0
100
AcDbBlockBegin
  2
block 54
 70
    0
 10
0
 20
0
  3
block 54
  1

  0
LWPOLYLINE
  5
106
100
AcDbEntity
  8
0
  6
ByBlock
 62
    0
370
   -2
100
AcDbPolyline
 90
    5
 70
    0
 43
0
 10
70.49442788643053
 20
39.67379907231523
 10
71.48689124728305
 20
39.67379907231523
 10
71.98312239603311
 20
39.17756792356453
 10
71.98312239603311
 20
37.93699377341966
 10
72.47934503796989
 20
37.44076262466961
  0
ENDBLK
  5
67
330
65
100
AcDbEntity
  8
0
100
AcDbBlockEnd
  0
BLOCK
  5
69
330
68
100
AcDbEntity
  8
0
100
AcDbBlockBegin
  2
block 55
 70
    0
 10
0
 20
0
  3
block 55
  1

  0
LWPOLYLINE
  5
107
100
AcDbEntity
  8
0
  6
ByBlock
 62
    0
370
   -2
100
AcDbPolyline
 90
    7
 70
    0
 43
0
 10
71.98312239603311
 20
37.93699377341966
 10
71.48689124728305
 20
37.44076262466961
 10
70.49442788643053
 20
37.44076262466961
 10
69.99819673768047
 20
37.93699377341966
 10
69.99819673768047
 20
38.18510562606443
 10
70.49442788643053
 20
38.68133677481448
 10
71.98312239603311
 20
38.68133677481448
  0
ENDBLK
  5
6A
330
68
100
AcDbEntity
  8
0
100
AcDbBlockEnd
  0
BLOCK
  5
6C
330
6B
100
AcDbEntity
  8
0
100
AcDbBlockBegin
  2
block 56
 70
    0
 10
0
 20
0
  3
block 56
  1

  0
LWPOLYLINE
  5
108
100
AcDbEntity
  8
0
  6
ByBlock
 62
    0
370
   -2
100
AcDbPolyline
 90
    4
 70
    0
 43
0
 10
73.27332210676194
 20
39.67379907231523
 10
73.76954581205051
 20
39.17756792356453
 10
74.26578440426269
 20
39.67379907231523
 10
75.50635855440756
 20
39.67379907231523
  0
ENDBLK
  5
6D
330
6B
100
AcDbEntity
  8
0
100
AcDbBlockEnd
  0
BLOCK
  5
6F
330
6E
100
AcDbEntity
  8
0
100
AcDbBlockBegin
  2
block 57
 70
    0
 10
0
 20
0
  3
block 57
  1

  0
LINE
  5
109
100
AcDbEntity
  8
0
  6
ByBlock
 62
    0
370
   -2
100
AcDbLine
 10
73.76954581205051
 20
39.17756792356453
 11
73.76954581205051
 21
37.44076262466961
  0
ENDBLK
  5
70
330
6E
100
AcDbEntity
  8
0
100
AcDbBlockEnd
  0
BLOCK
  5
72
330
71
100
AcDbEntity
  8
0
100
AcDbBlockBegin
  2
block 58
 70
    0
 10
0
 20
0
  3
block 58
  1

  0
LWPOLYLINE
  5
10A
100
AcDbEntity
  8
0
  6
ByBlock
 62
    0
370
   -2
100
AcDbPolyline
 90
   10
 70
    0
 43
0
 10
78.78147648002722
 20
37.44076262466961
 10
77.29279047723823
 20
37.44076262466961
 10
76.79655932848786
 20
37.93699377341966
 10
76.79655932848786
 20
39.17756792356453
 10
77.29279047723823
 20
39.67379907231523
 10
78.28525277473898
 20
39.67379907231523
 10
78.78147648002722
 20
39.17756792356453
 10
78.78147648002722
 20
38.68133677481448
 10
78.53336462738311
 20
38.43322492217035
 10
76.79655932848786
 20
38.43322492217035
  0
ENDBLK
  5
73
330
71
100
AcDbEntity
  8
0
100
AcDbBlockEnd
  0
BLOCK
  5
75
330
74
100
AcDbEntity
  8
0
100
AcDbBlockBegin
  2
block 59
 70
    0
 10
0
 20
0
  3
block 59
  1

  0
LWPOLYLINE
  5
10B
100
AcDbEntity
  8
0
  6
ByBlock
 62
    0
370
   -2
100
AcDbPolyline
 90
    5
 70
    0
 43
0
 10
80.31979548686199
 20
39.67379907231523
 10
81.31225884771452
 20
39.67379907231523
 10
81.80848999646457
 20
39.17756792356453
 10
81.80848999646457
 20
37.93699377341966
 10
82.30472114521494
 20
37.44076262466961
  0
ENDBLK
  5
76
330
74
100
AcDbEntity
  8
0
100
AcDbBlockEnd
  0
BLOCK
  5
78
330
77
100
AcDbEntity
  8
0
100
AcDbBlockBegin
  2
block 60
 70
    0
 10
0
 20
0
  3
block 60
  1

  0
LWPOLYLINE
  5
10C
100
AcDbEntity
  8
0
  6
ByBlock
 62
    0
370
   -2
100
AcDbPolyline
 90
    7
 70
    0
 43
0
 10
81.80848999646457
 20
37.93699377341966
 10
81.31225884771452
 20
37.44076262466961
 10
80.31979548686199
 20
37.44076262466961
 10
79.82356433811194
 20
37.93699377341966
 10
79.82356433811162
 20
38.18510562606443
 10
80.31979548686199
 20
38.68133677481448
 10
81.80848999646457
 20
38.68133677481448
  0
ENDBLK
  5
79
330
77
100
AcDbEntity
  8
0
100
AcDbBlockEnd
  0
BLOCK
  5
7B
330
7A
100
AcDbEntity
  8
0
100
AcDbBlockBegin
  2
block 47
 70
    0
 10
0
 20
0
  3
block 47
  1

  0
LINE
  5
10D
100
AcDbEntity
  8
0
  6
ByBlock
 62
    0
370
   -2
100
AcDbLine
 10
54.11881061118758
 20
39.17756792356453
 11
54.11881061118758
 21
37.44076262466961
  0
ENDBLK
  5
7C
330
7A
100
AcDbEntity
  8
0
100
AcDbBlockEnd
  0
BLOCK
  5
7E
330
7D
100
AcDbEntity
  8
0
100
AcDbBlockBegin
  2
block 3
 70
    0
 10
0
 20
0
  3
block 3
  1

  0
LINE
  5
10E
100
AcDbEntity
  8
0
  6
ByBlock
 62
    0
370
   -2
100
AcDbLine
 10
193.098886046988
 20
258.2837882219853
 11
193.098886046988
 21
261.7573998831273
  0
ENDBLK
  5
7F
330
7D
100
AcDbEntity
  8
0
100
AcDbBlockEnd
  0
BLOCK
  5
81
330
80
100
AcDbEntity
  8
0
100
AcDbBlockBegin
  2
block 4
 70
    0
 10
0
 20
0
  3
block 4
  1

  0
LINE
  5
10F
100
AcDbEntity
  8
0
  6
ByBlock
 62
    0
370
   -2
100
AcDbLine
 10
195.5800354106289
 20
258.2837882219853
 11
195.5800354106289
 21
261.7573998831273
  0
ENDBLK
  5
82
330
80
100
AcDbEntity
  8
0
100
AcDbBlockEnd
  0
BLOCK
  5
84
330
83
100
AcDbEntity
  8
0
100
AcDbBlockBegin
  2
block 5
 70
    0
 10
0
 20
0
  3
block 5
  1

  0
LINE
  5
110
100
AcDbEntity
  8
0
  6
ByBlock
 62
    0
370
   -2
100
AcDbLine
 10
193.098886046988
 20
260.0205935208806
 11
195.5800354106289
 21
260.0205935208806
  0
ENDBLK
  5
85
330
83
100
AcDbEntity
  8
0
100
AcDbBlockEnd
  0
BLOCK
  5
87
330
86
100
AcDbEntity
  8
0
100
AcDbBlockBegin
  2
block 6
 70
    0
 10
0
 20
0
  3
block 6
  1

  0
LWPOLYLINE
  5
111
100
AcDbEntity
  8
0
  6
ByBlock
 62
    0
370
   -2
100
AcDbPolyline
 90
   10
 70
    0
 43
0
 10
198.607040420253
 20
258.2837882219853
 10
197.118354417464
 20
258.2837882219853
 10
196.6221147619003
 20
258.7800278775493
 10
196.6221147619003
 20
260.0205935208806
 10
197.118354417464
 20
260.5168331764445
 10
198.1108177783165
 20
260.5168331764445
 10
198.607040420253
 20
260.0205935208806
 10
198.607040420253
 20
259.5243538653166
 10
198.3589211241471
 20
259.2762345692107
 10
196.6221147619003
 20
259.2762345692107
  0
ENDBLK
  5
88
330
86
100
AcDbEntity
  8
0
100
AcDbBlockEnd
  0
BLOCK
  5
8A
330
89
100
AcDbEntity
  8
0
100
AcDbBlockBegin
  2
block 7
 70
    0
 10
0
 20
0
  3
block 7
  1

  0
LWPOLYLINE
  5
112
100
AcDbEntity
  8
0
  6
ByBlock
 62
    0
370
   -2
100
AcDbPolyline
 90
    5
 70
    0
 43
0
 10
200.1453604904398
 20
260.5168331764445
 10
201.1378227879399
 20
260.5168331764445
 10
201.6340464932289
 20
260.0205935208806
 10
201.6340464932289
 20
258.7800278775493
 10
202.1302850854407
 20
258.2837882219853
  0
ENDBLK
  5
8B
330
89
100
AcDbEntity
  8
0
100
AcDbBlockEnd
  0
BLOCK
  5
8D
330
8C
100
AcDbEntity
  8
0
100
AcDbBlockBegin
  2
block 8
 70
    0
 10
0
 20
0
  3
block 8
  1

  0
LWPOLYLINE
  5
113
100
AcDbEntity
  8
0
  6
ByBlock
 62
    0
370
   -2
100
AcDbPolyline
 90
    7
 70
    0
 43
0
 10
201.6340464932289
 20
258.7800278775493
 10
201.1378227879399
 20
258.2837882219853
 10
200.1453604904398
 20
258.2837882219853
 10
199.6491208348756
 20
258.7800278775493
 10
199.6491208348756
 20
259.0281471736556
 10
200.1453604904398
 20
259.5243538653166
 10
201.6340464932289
 20
259.5243538653166
  0
ENDBLK
  5
8E
330
8C
100
AcDbEntity
  8
0
100
AcDbBlockEnd
  0
BLOCK
  5
90
330
8F
100
AcDbEntity
  8
0
100
AcDbBlockBegin
  2
block 9
 70
    0
 10
0
 20
0
  3
block 9
  1

  0
LWPOLYLINE
  5
114
100
AcDbEntity
  8
0
  6
ByBlock
 62
    0
370
   -2
100
AcDbPolyline
 90
    4
 70
    0
 43
0
 10
204.164827797564
 20
261.7573998831273
 10
204.164827797564
 20
258.7800278775493
 10
204.6610515028523
 20
258.2837882219853
 10
205.1572911584165
 20
258.2837882219853
  0
ENDBLK
  5
91
330
8F
100
AcDbEntity
  8
0
100
AcDbBlockEnd
  0
BLOCK
  5
93
330
92
100
AcDbEntity
  8
0
100
AcDbBlockBegin
  2
block 10
 70
    0
 10
0
 20
0
  3
block 10
  1

  0
LINE
  5
115
100
AcDbEntity
  8
0
  6
ByBlock
 62
    0
370
   -2
100
AcDbLine
 10
203.1723655000633
 20
260.5168331764445
 11
205.1572911584165
 21
260.5168331764445
  0
ENDBLK
  5
94
330
92
100
AcDbEntity
  8
0
100
AcDbBlockEnd
  0
BLOCK
  5
96
330
95
100
AcDbEntity
  8
0
100
AcDbBlockBegin
  2
block 11
 70
    0
 10
0
 20
0
  3
block 11
  1

  0
LWPOLYLINE
  5
116
100
AcDbEntity
  8
0
  6
ByBlock
 62
    0
370
   -2
100
AcDbPolyline
 90
    9
 70
    0
 43
0
 10
206.4474908691451
 20
261.7573998831273
 10
206.4474908691451
 20
260.0205935208806
 10
206.4474908691451
 20
258.2837882219853
 10
207.9361768719341
 20
258.2837882219853
 10
208.4324165274977
 20
258.7800278775493
 10
208.4324165274983
 20
260.0205935208806
 10
207.9361768719341
 20
260.5168331764445
 10
206.9437135110815
 20
260.5168331764445
 10
206.4474908691451
 20
260.0205935208806
  0
ENDBLK
  5
97
330
95
100
AcDbEntity
  8
0
100
AcDbBlockEnd
  0
BLOCK
  5
99
330
98
100
AcDbEntity
  8
0
100
AcDbBlockBegin
  2
block 12
 70
    0
 10
0
 20
0
  3
block 12
  1

  0
LWPOLYLINE
  5
117
100
AcDbEntity
  8
0
  6
ByBlock
 62
    0
370
   -2
100
AcDbPolyline
 90
   10
 70
    0
 43
0
 10
211.7075408332284
 20
258.2837882219853
 10
210.2188388801633
 20
258.2837882219853
 10
209.7226162382269
 20
258.7800278775493
 10
209.7226162382269
 20
260.0205935208806
 10
210.2188388801633
 20
260.5168331764445
 10
211.2113022410159
 20
260.5168331764445
 10
211.7075408332284
 20
260.0205935208806
 10
211.7075408332284
 20
259.5243538653166
 10
211.4594215371218
 20
259.2762345692107
 10
209.7226162382269
 20
259.2762345692107
  0
ENDBLK
  5
9A
330
98
100
AcDbEntity
  8
0
100
AcDbBlockEnd
  0
BLOCK
  5
9C
330
9B
100
AcDbEntity
  8
0
100
AcDbBlockBegin
  2
block 13
 70
    0
 10
0
 20
0
  3
block 13
  1

  0
LWPOLYLINE
  5
118
100
AcDbEntity
  8
0
  6
ByBlock
 62
    0
370
   -2
100
AcDbPolyline
 90
    9
 70
    0
 43
0
 10
214.9826502520341
 20
261.7573998831273
 10
214.9826502520341
 20
258.7800278775493
 10
214.4864265467459
 20
258.2837882219853
 10
213.4939642492451
 20
258.2837882219853
 10
212.9977416073087
 20
258.7800278775493
 10
212.9977416073087
 20
260.0205935208806
 10
213.4939642492451
 20
260.5168331764445
 10
214.4864265467459
 20
260.5168331764445
 10
214.9826502520341
 20
260.0205935208806
  0
ENDBLK
  5
9D
330
9B
100
AcDbEntity
  8
0
100
AcDbBlockEnd
  0
BLOCK
  5
9F
330
9E
100
AcDbEntity
  8
0
100
AcDbBlockBegin
  2
block 14
 70
    0
 10
0
 20
0
  3
block 14
  1

  0
LINE
  5
119
100
AcDbEntity
  8
0
  6
ByBlock
 62
    0
370
   -2
100
AcDbLine
 10
214.9826502520341
 20
258.7800278775493
 11
215.4788899075984
 21
258.2837882219853
  0
ENDBLK
  5
A0
330
9E
100
AcDbEntity
  8
0
100
AcDbBlockEnd
  0
BLOCK
  5
A2
330
A1
100
AcDbEntity
  8
0
100
AcDbBlockBegin
  2
block 15
 70
    0
 10
0
 20
0
  3
block 15
  1

  0
LWPOLYLINE
  5
11A
100
AcDbEntity
  8
0
  6
ByBlock
 62
    0
370
   -2
100
AcDbPolyline
 90
   12
 70
    0
 43
0
 10
219.2998719860139
 20
258.7800278775493
 10
219.796094627951
 20
258.2837882219853
 10
221.28478063074
 20
258.2837882219853
 10
221.7810202863036
 20
258.7800278775493
 10
221.7810202863036
 20
259.7724742247743
 10
221.5329009901977
 20
260.0205935208806
 10
219.796094627951
 20
260.0205935208806
 10
219.2998719860139
 20
260.5168331764445
 10
219.2998719860139
 20
261.2611602275633
 10
219.796094627951
 20
261.7573998831273
 10
221.28478063074
 20
261.7573998831273
 10
221.7810202863036
 20
261.2611602275633
  0
ENDBLK
  5
A3
330
A1
100
AcDbEntity
  8
0
100
AcDbBlockEnd
  0
BLOCK
  5
A5
330
A4
100
AcDbEntity
  8
0
100
AcDbBlockBegin
  2
block 16
 70
    0
 10
0
 20
0
  3
block 16
  1

  0
LWPOLYLINE
  5
11B
100
AcDbEntity
  8
0
  6
ByBlock
 62
    0
370
   -2
100
AcDbPolyline
 90
    4
 70
    0
 43
0
 10
223.815562998427
 20
261.7573998831273
 10
223.815562998427
 20
258.7800278775493
 10
224.3118026539906
 20
258.2837882219853
 10
224.8080252959277
 20
258.2837882219853
  0
ENDBLK
  5
A6
330
A4
100
AcDbEntity
  8
0
100
AcDbBlockEnd
  0
BLOCK
  5
A8
330
A7
100
AcDbEntity
  8
0
100
AcDbBlockBegin
  2
block 17
 70
    0
 10
0
 20
0
  3
block 17
  1

  0
LINE
  5
11C
100
AcDbEntity
  8
0
  6
ByBlock
 62
    0
370
   -2
100
AcDbLine
 10
222.8231007009262
 20
260.5168331764445
 11
224.8080252959277
 21
260.5168331764445
  0
ENDBLK
  5
A9
330
A7
100
AcDbEntity
  8
0
100
AcDbBlockEnd
  0
BLOCK
  5
AB
330
AA
100
AcDbEntity
  8
0
100
AcDbBlockBegin
  2
block 18
 70
    0
 10
0
 20
0
  3
block 18
  1

  0
LWPOLYLINE
  5
11D
100
AcDbEntity
  8
0
  6
ByBlock
 62
    0
370
   -2
100
AcDbPolyline
 90
   10
 70
    0
 43
0
 10
228.0831506650095
 20
258.2837882219853
 10
226.5944646622205
 20
258.2837882219853
 10
226.098226070008
 20
258.7800278775493
 10
226.098226070008
 20
260.0205935208806
 10
226.5944646622205
 20
260.5168331764445
 10
227.5869110094452
 20
260.5168331764445
 10
228.0831506650095
 20
260.0205935208806
 10
228.0831506650095
 20
259.5243538653166
 10
227.8350313689029
 20
259.2762345692107
 10
226.098226070008
 20
259.2762345692107
  0
ENDBLK
  5
AC
330
AA
100
AcDbEntity
  8
0
100
AcDbBlockEnd
  0
BLOCK
  5
AE
330
AD
100
AcDbEntity
  8
0
100
AcDbBlockBegin
  2
block 19
 70
    0
 10
0
 20
0
  3
block 19
  1

  0
LWPOLYLINE
  5
11E
100
AcDbEntity
  8
0
  6
ByBlock
 62
    0
370
   -2
100
AcDbPolyline
 90
   10
 70
    0
 43
0
 10
231.3582600838153
 20
258.2837882219853
 10
229.8695740810263
 20
258.2837882219853
 10
229.373350375738
 20
258.7800278775493
 10
229.373350375738
 20
260.0205935208806
 10
229.8695740810263
 20
260.5168331764445
 10
230.8620533921542
 20
260.5168331764445
 10
231.3582600838153
 20
260.0205935208806
 10
231.3582600838153
 20
259.5243538653166
 10
231.1101726882601
 20
259.2762345692107
 10
229.373350375738
 20
259.2762345692107
  0
ENDBLK
  5
AF
330
AD
100
AcDbEntity
  8
0
100
AcDbBlockEnd
  0
BLOCK
  5
B1
330
B0
100
AcDbEntity
  8
0
100
AcDbBlockBegin
  2
block 20
 70
    0
 10
0
 20
0
  3
block 20
  1

  0
LWPOLYLINE
  5
11F
100
AcDbEntity
  8
0
  6
ByBlock
 62
    0
370
   -2
100
AcDbPolyline
 90
    4
 70
    0
 43
0
 10
233.6409220920445
 20
261.7573998831273
 10
233.6409220920445
 20
260.0205935208806
 10
233.6409220920445
 20
258.2837882219853
 10
234.1371617476088
 20
258.2837882219853
  0
ENDBLK
  5
B2
330
B0
100
AcDbEntity
  8
0
100
AcDbBlockEnd
  0
BLOCK
  5
B4
330
B3
100
AcDbEntity
  8
0
100
AcDbBlockBegin
  2
block 21
 70
    0
 10
0
 20
0
  3
block 21
  1

  0
LWPOLYLINE
  5
120
100
AcDbEntity
  8
0
  6
ByBlock
 62
    0
370
   -2
100
AcDbPolyline
 90
   12
 70
    0
 43
0
 10
238.9506071868768
 20
258.7800278775493
 10
239.4468457790893
 20
258.2837882219853
 10
240.9355317818783
 20
258.2837882219853
 10
241.4317714374419
 20
258.7800278775493
 10
241.4317714374419
 20
259.7724742247743
 10
241.183652141336
 20
260.0205935208806
 10
239.4468457790893
 20
260.0205935208806
 10
238.9506071868768
 20
260.5168331764445
 10
238.9506071868768
 20
261.2611602275633
 10
239.4468457790893
 20
261.7573998831273
 10
240.9355317818783
 20
261.7573998831273
 10
241.4317714374419
 20
261.2611602275633
  0
ENDBLK
  5
B5
330
B3
100
AcDbEntity
  8
0
100
AcDbBlockEnd
  0
BLOCK
  5
B7
330
B6
100
AcDbEntity
  8
0
100
AcDbBlockBegin
  2
block 22
 70
    0
 10
0
 20
0
  3
block 22
  1

  0
LINE
  5
121
100
AcDbEntity
  8
0
  6
ByBlock
 62
    0
370
   -2
100
AcDbLine
 10
242.4738678023405
 20
258.2837882219853
 11
242.4738678023405
 21
261.7573998831273
  0
ENDBLK
  5
B8
330
B6
100
AcDbEntity
  8
0
100
AcDbBlockEnd
  0
BLOCK
  5
BA
330
B9
100
AcDbEntity
  8
0
100
AcDbBlockBegin
  2
block 23
 70
    0
 10
0
 20
0
  3
block 23
  1

  0
LWPOLYLINE
  5
122
100
AcDbEntity
  8
0
  6
ByBlock
 62
    0
370
   -2
100
AcDbPolyline
 90
    5
 70
    0
 43
0
 10
242.4738678023405
 20
260.0205935208806
 10
242.9700744940016
 20
260.5168331764445
 10
243.9625538051295
 20
260.5168331764445
 10
244.4587604967906
 20
260.0205935208806
 10
244.4587604967906
 20
258.2837882219853
  0
ENDBLK
  5
BB
330
B9
100
AcDbEntity
  8
0
100
AcDbBlockEnd
  0
BLOCK
  5
BD
330
BC
100
AcDbEntity
  8
0
100
AcDbBlockBegin
  2
block 24
 70
    0
 10
0
 20
0
  3
block 24
  1

  0
LWPOLYLINE
  5
123
100
AcDbEntity
  8
0
  6
ByBlock
 62
    0
370
   -2
100
AcDbPolyline
 90
   10
 70
    0
 43
0
 10
247.7339018161478
 20
258.2837882219853
 10
246.2452158133588
 20
258.2837882219853
 10
245.7489772211463
 20
258.7800278775493
 10
245.7489772211463
 20
260.0205935208806
 10
246.2452158133588
 20
260.5168331764445
 10
247.2376621605835
 20
260.5168331764445
 10
247.7339018161478
 20
260.0205935208806
 10
247.7339018161478
 20
259.5243538653166
 10
247.4857825200412
 20
259.2762345692107
 10
245.7489772211463
 20
259.2762345692107
  0
ENDBLK
  5
BE
330
BC
100
AcDbEntity
  8
0
100
AcDbBlockEnd
  0
BLOCK
  5
C0
330
BF
100
AcDbEntity
  8
0
100
AcDbBlockBegin
  2
block 25
 70
    0
 10
0
 20
0
  3
block 25
  1

  0
LWPOLYLINE
  5
124
100
AcDbEntity
  8
0
  6
ByBlock
 62
    0
370
   -2
100
AcDbPolyline
 90
   10
 70
    0
 43
0
 10
251.009043135505
 20
258.2837882219853
 10
249.5203252321646
 20
258.2837882219853
 10
249.024085576601
 20
258.7800278775493
 10
249.024085576601
 20
260.0205935208806
 10
249.5203252321646
 20
260.5168331764445
 10
250.5128045432925
 20
260.5168331764445
 10
251.009043135505
 20
260.0205935208806
 10
251.009043135505
 20
259.5243538653166
 10
250.7609238393984
 20
259.2762345692107
 10
249.024085576601
 20
259.2762345692107
  0
ENDBLK
  5
C1
330
BF
100
AcDbEntity
  8
0
100
AcDbBlockEnd
  0
BLOCK
  5
C3
330
C2
100
AcDbEntity
  8
0
100
AcDbBlockBegin
  2
block 26
 70
    0
 10
0
 20
0
  3
block 26
  1

  0
LWPOLYLINE
  5
125
100
AcDbEntity
  8
0
  6
ByBlock
 62
    0
370
   -2
100
AcDbPolyline
 90
    4
 70
    0
 43
0
 10
253.291706207086
 20
261.7573998831273
 10
253.291706207086
 20
258.7800278775493
 10
253.7879128987471
 20
258.2837882219853
 10
254.2841525543107
 20
258.2837882219853
  0
ENDBLK
  5
C4
330
C2
100
AcDbEntity
  8
0
100
AcDbBlockEnd
  0
BLOCK
  5
C6
330
C5
100
AcDbEntity
  8
0
100
AcDbBlockBegin
  2
block 27
 70
    0
 10
0
 20
0
  3
block 27
  1

  0
LINE
  5
126
100
AcDbEntity
  8
0
  6
ByBlock
 62
    0
370
   -2
100
AcDbLine
 10
252.2992268959581
 20
260.5168331764445
 11
254.2841525543107
 21
260.5168331764445
  0
ENDBLK
  5
C7
330
C5
100
AcDbEntity
  8
0
100
AcDbBlockEnd
  0
BLOCK
  5
C9
330
C8
100
AcDbEntity
  8
0
100
AcDbBlockBegin
  2
block 28
 70
    0
 10
0
 20
0
  3
block 28
  1

  0
LWPOLYLINE
  5
127
100
AcDbEntity
  8
0
  6
ByBlock
 62
    0
370
   -2
100
AcDbPolyline
 90
    9
 70
    0
 43
0
 10
258.8494776341217
 20
261.7573998831273
 10
258.8494776341217
 20
260.0205935208806
 10
258.8494776341217
 20
258.2837882219853
 10
260.3381636369107
 20
258.2837882219853
 10
260.8344032924743
 20
258.7800278775493
 10
260.8344032924743
 20
260.0205935208806
 10
260.3381636369107
 20
260.5168331764445
 10
259.3457172896854
 20
260.5168331764445
 10
258.8494776341217
 20
260.0205935208806
  0
ENDBLK
  5
CA
330
C8
100
AcDbEntity
  8
0
100
AcDbBlockEnd
  0
BLOCK
  5
CC
330
CB
100
AcDbEntity
  8
0
100
AcDbBlockBegin
  2
block 29
 70
    0
 10
0
 20
0
  3
block 29
  1

  0
LWPOLYLINE
  5
128
100
AcDbEntity
  8
0
  6
ByBlock
 62
    0
370
   -2
100
AcDbPolyline
 90
    3
 70
    0
 43
0
 10
262.1245859895757
 20
260.5168331764445
 10
262.1245859895757
 20
259.2762345692107
 10
263.1170653007036
 20
258.2837882219853
  0
ENDBLK
  5
CD
330
CB
100
AcDbEntity
  8
0
100
AcDbBlockEnd
  0
BLOCK
  5
CF
330
CE
100
AcDbEntity
  8
0
100
AcDbBlockBegin
  2
block 30
 70
    0
 10
0
 20
0
  3
block 30
  1

  0
LWPOLYLINE
  5
129
100
AcDbEntity
  8
0
  6
ByBlock
 62
    0
370
   -2
100
AcDbPolyline
 90
    3
 70
    0
 43
0
 10
264.1095446118315
 20
260.5168331764445
 10
264.1095446118315
 20
259.2762345692107
 10
262.1245859895757
 20
257.2913418747603
  0
ENDBLK
  5
D0
330
CE
100
AcDbEntity
  8
0
100
AcDbBlockEnd
  0
BLOCK
  5
D2
330
D1
100
AcDbEntity
  8
0
100
AcDbBlockBegin
  2
block 31
 70
    0
 10
0
 20
0
  3
block 31
  1

  0
LWPOLYLINE
  5
12A
100
AcDbEntity
  8
0
  6
ByBlock
 62
    0
370
   -2
100
AcDbPolyline
 90
    8
 70
    0
 43
0
 10
268.4267493321841
 20
258.2837882219853
 10
268.4267493321841
 20
260.0205935208806
 10
268.4267493321841
 20
261.7573998831273
 10
270.4116420266342
 20
261.7573998831273
 10
270.9078816821985
 20
261.2611602275633
 10
270.9078816821985
 20
260.5168331764445
 10
270.4116420266342
 20
260.0205935208806
 10
268.4267493321841
 20
260.0205935208806
  0
ENDBLK
  5
D3
330
D1
100
AcDbEntity
  8
0
100
AcDbBlockEnd
  0
BLOCK
  5
D5
330
D4
100
AcDbEntity
  8
0
100
AcDbBlockBegin
  2
block 32
 70
    0
 10
0
 20
0
  3
block 32
  1

  0
LWPOLYLINE
  5
12B
100
AcDbEntity
  8
0
  6
ByBlock
 62
    0
370
   -2
100
AcDbPolyline
 90
    8
 70
    0
 43
0
 10
271.7018587509905
 20
258.2837882219853
 10
271.7018587509905
 20
260.0205935208806
 10
271.7018587509905
 20
261.7573998831273
 10
273.6867844093431
 20
261.7573998831273
 10
274.1830230015556
 20
261.2611602275633
 10
274.1830230015556
 20
260.5168331764445
 10
273.6867844093431
 20
260.0205935208806
 10
271.7018587509905
 20
260.0205935208806
  0
ENDBLK
  5
D6
330
D4
100
AcDbEntity
  8
0
100
AcDbBlockEnd
  0
BLOCK
  5
D8
330
D7
100
AcDbEntity
  8
0
100
AcDbBlockBegin
  2
block 33
 70
    0
 10
0
 20
0
  3
block 33
  1

  0
LINE
  5
12C
100
AcDbEntity
  8
0
  6
ByBlock
 62
    0
370
   -2
100
AcDbLine
 10
272.4462177026601
 20
260.0205935208806
 11
274.1830230015556
 21
258.2837882219853
  0
ENDBLK
  5
D9
330
D7
100
AcDbEntity
  8
0
100
AcDbBlockEnd
  0
BLOCK
  5
DB
330
DA
100
AcDbEntity
  8
0
100
AcDbBlockBegin
  2
block 34
 70
    0
 10
0
 20
0
  3
block 34
  1

  0
LWPOLYLINE
  5
12D
100
AcDbEntity
  8
0
  6
ByBlock
 62
    0
370
   -2
100
AcDbPolyline
 90
    6
 70
    0
 43
0
 10
277.4581324203614
 20
261.7573998831273
 10
277.4581324203614
 20
258.7800278775493
 10
276.9619257287003
 20
258.2837882219853
 10
275.4732067620088
 20
258.2837882219853
 10
274.9770000703477
 20
258.7800278775493
 10
274.9770000703477
 20
261.7573998831273
  0
ENDBLK
  5
DC
330
DA
100
AcDbEntity
  8
0
100
AcDbBlockEnd
  0
BLOCK
  5
DE
330
DD
100
AcDbEntity
  8
0
100
AcDbBlockBegin
  2
block 35
 70
    0
 10
0
 20
0
  3
block 35
  1

  0
LWPOLYLINE
  5
12E
100
AcDbEntity
  8
0
  6
ByBlock
 62
    0
370
   -2
100
AcDbPolyline
 90
   12
 70
    0
 43
0
 10
278.2521084258023
 20
258.7800278775493
 10
278.7483480813659
 20
258.2837882219853
 10
280.2370340841549
 20
258.2837882219853
 10
280.7332737397186
 20
258.7800278775493
 10
280.7332737397192
 20
259.7724742247743
 10
280.4851544436127
 20
260.0205935208806
 10
278.7483480813659
 20
260.0205935208806
 10
278.2521084258023
 20
260.5168331764445
 10
278.2521084258023
 20
261.2611602275633
 10
278.7483480813659
 20
261.7573998831273
 10
280.2370340841549
 20
261.7573998831273
 10
280.7332737397186
 20
261.2611602275633
  0
ENDBLK
  5
DF
330
DD
100
AcDbEntity
  8
0
100
AcDbBlockEnd
  0
BLOCK
  5
E1
330
E0
100
AcDbEntity
  8
0
100
AcDbBlockBegin
  2
block 36
 70
    0
 10
0
 20
0
  3
block 36
  1

  0
LWPOLYLINE
  5
12F
100
AcDbEntity
  8
0
  6
ByBlock
 62
    0
370
   -2
100
AcDbPolyline
 90
    5
 70
    0
 43
0
 10
281.2791304490529
 20
258.2837882219853
 10
281.2791304490529
 20
260.2687138803386
 10
282.7678164518419
 20
261.7573998831273
 10
284.2565024546309
 20
260.2687138803383
 10
284.2565024546309
 20
258.2837882219853
  0
ENDBLK
  5
E2
330
E0
100
AcDbEntity
  8
0
100
AcDbBlockEnd
  0
BLOCK
  5
E4
330
E3
100
AcDbEntity
  8
0
100
AcDbBlockBegin
  2
block 37
 70
    0
 10
0
 20
0
  3
block 37
  1

  0
LINE
  5
130
100
AcDbEntity
  8
0
  6
ByBlock
 62
    0
370
   -2
100
AcDbLine
 10
284.2565024546309
 20
259.5243538653166
 11
281.2791304490529
 21
259.5243538653166
  0
ENDBLK
  5
E5
330
E3
100
AcDbEntity
  8
0
100
AcDbBlockEnd
  0
BLOCK
  5
E7
330
E6
100
AcDbEntity
  8
0
100
AcDbBlockBegin
  2
block 38
 70
    0
 10
0
 20
0
  3
block 38
  1

  0
LWPOLYLINE
  5
131
100
AcDbEntity
  8
0
  6
ByBlock
 62
    0
370
   -2
100
AcDbPolyline
 90
    8
 70
    0
 43
0
 10
285.050479523423
 20
261.7573998831273
 10
287.0354041184244
 20
261.7573998831273
 10
286.0429258706483
 20
260.2687138803383
 10
287.0354041184244
 20
259.7724742247743
 10
287.0354041184244
 20
258.7800278775493
 10
286.5391644628608
 20
258.2837882219853
 10
285.5467181156354
 20
258.2837882219853
 10
285.050479523423
 20
258.7800278775493
  0
ENDBLK
  5
E8
330
E6
100
AcDbEntity
  8
0
100
AcDbBlockEnd
  0
BLOCK
  5
EA
330
E9
100
AcDbEntity
  8
0
100
AcDbBlockBegin
  2
block 39
 70
    0
 10
0
 20
0
  3
block 39
  1

  0
LWPOLYLINE
  5
132
100
AcDbEntity
  8
0
  6
ByBlock
 62
    0
370
   -2
100
AcDbPolyline
 90
    6
 70
    0
 43
0
 10
288.0775004833224
 20
258.2837882219853
 10
290.0624261416757
 20
258.2837882219853
 10
290.5586328333368
 20
258.7800278775493
 10
290.5586328333368
 20
261.2611602275633
 10
290.0624261416757
 20
261.7573998831273
 10
288.0775004833224
 20
261.7573998831273
  0
ENDBLK
  5
EB
330
E9
100
AcDbEntity
  8
0
100
AcDbBlockEnd
  0
BLOCK
  5
ED
330
EC
100
AcDbEntity
  8
0
100
AcDbBlockBegin
  2
block 40
 70
    0
 10
0
 20
0
  3
block 40
  1

  0
LINE
  5
133
100
AcDbEntity
  8
0
  6
ByBlock
 62
    0
370
   -2
100
AcDbLine
 10
288.5737082383353
 20
261.7573998831273
 11
288.5737082383353
 21
258.2837882219853
  0
ENDBLK
  5
EE
330
EC
100
AcDbEntity
  8
0
100
AcDbBlockEnd
  0
BLOCK
  5
F0
330
EF
100
AcDbEntity
  8
0
100
AcDbBlockBegin
  2
block 41
 70
    0
 10
0
 20
0
  3
block 41
  1

  0
LWPOLYLINE
  5
134
100
AcDbEntity
  8
0
  6
ByBlock
 62
    0
370
   -2
100
AcDbPolyline
 90
    5
 70
    0
 43
0
 10
292.096968853799
 20
258.2837882219853
 10
291.6007291982347
 20
258.2837882219853
 10
291.6007291982347
 20
258.7800278775493
 10
292.096968853799
 20
258.7800278775493
 10
292.096968853799
 20
258.2837882219853
  0
ENDBLK
  5
F1
330
EF
100
AcDbEntity
  8
0
100
AcDbBlockEnd
  0
BLOCK
  5
F3
330
F2
100
AcDbEntity
  8
0
100
AcDbBlockBegin
  2
block 42
 70
    0
 10
0
 20
0
  3
block 42
  1

  0
LWPOLYLINE
  5
135
100
AcDbEntity
  8
0
  6
ByBlock
 62
    0
370
   -2
100
AcDbPolyline
 90
    8
 70
    0
 43
0
 10
297.1088835715004
 20
258.7800278775493
 10
296.6126439159361
 20
258.2837882219853
 10
295.1239908770496
 20
258.2837882219853
 10
294.627751221486
 20
258.7800278775493
 10
294.627751221486
 20
261.2611602275633
 10
295.1239908770496
 20
261.7573998831273
 10
296.6126439159361
 20
261.7573998831273
 10
297.1088835715004
 20
261.2611602275633
  0
ENDBLK
  5
F4
330
F2
100
AcDbEntity
  8
0
100
AcDbBlockEnd
  0
BLOCK
  5
F6
330
F5
100
AcDbEntity
  8
0
100
AcDbBlockBegin
  2
block 43
 70
    0
 10
0
 20
0
  3
block 43
  1

  0
LWPOLYLINE
  5
136
100
AcDbEntity
  8
0
  6
ByBlock
 62
    0
370
   -2
100
AcDbPolyline
 90
    9
 70
    0
 43
0
 10
300.3840248908575
 20
258.7800278775493
 10
299.8877852352932
 20
258.2837882219853
 10
298.3990992325042
 20
258.2837882219853
 10
297.9028595769406
 20
258.7800278775493
 10
297.9028595769406
 20
261.2611602275633
 10
298.3990992325042
 20
261.7573998831273
 10
299.8877852352932
 20
261.7573998831273
 10
300.3840248908575
 20
261.2611602275633
 10
300.3840248908575
 20
258.7800278775493
  0
ENDBLK
  5
F7
330
F5
100
AcDbEntity
  8
0
100
AcDbBlockEnd
  0
BLOCK
  5
F9
330
F8
100
AcDbEntity
  8
0
100
AcDbBlockBegin
  2
block 44
 70
    0
 10
0
 20
0
  3
block 44
  1

  0
LWPOLYLINE
  5
137
100
AcDbEntity
  8
0
  6
ByBlock
 62
    0
370
   -2
100
AcDbPolyline
 90
    7
 70
    0
 43
0
 10
303.9072536057699
 20
258.2837882219853
 10
303.9072536057699
 20
260.0205935208806
 10
303.9072536057699
 20
261.7573998831273
 10
302.4185676029802
 20
260.0205935208806
 10
300.9298816001912
 20
261.7573998831273
 10
300.9298816001912
 20
260.0205935208806
 10
300.9298816001912
 20
258.2837882219853
  0
ENDBLK
  5
FA
330
F8
100
AcDbEntity
  8
0
100
AcDbBlockEnd
  0
BLOCK
  5
FC
330
FB
100
AcDbEntity
  8
0
100
AcDbBlockBegin
  2
block 2
 70
    0
 10
0
 20
0
  3
block 2
  1

  0
ENDBLK
  5
FD
330
FB
100
AcDbEntity
  8
0
100
AcDbBlockEnd
  0
ENDSEC
  0
SECTION
  2
ENTITIES
  0
ARC
  5
138
100
AcDbEntity
  8
0
  6
ByLayer
 62
    7
370
   30
100
AcDbCircle
 10
568.4442104611604
 20
118.5409586026076
 40
2
100
AcDbArc
 50
90.00000300000094
 51
148.9281900000006
  0
LINE
  5
139
100
AcDbEntity
  8
0
  6
ByLayer
 62
    7
370
   30
100
AcDbLine
 10
565.3414274611604
 20
117.2667886026076
 11
566.7311674611605
 21
119.5731856026076
  0
LINE
  5
13A
100
AcDbEntity
  8
0
  6
ByLayer
 62
    7
370
   30
100
AcDbLine
 10
568.4442104611604
 20
120.5409586026076
 11
615.0566374611604
 21
120.5409586026076
  0
ARC
  5
13B
100
AcDbEntity
  8
0
  6
ByLayer
 62
    7
370
   30
100
AcDbCircle
 10
559.7407504611605
 20
118.5409586026076
 40
2
100
AcDbArc
 50
29.7262400000001
 51
90.00000300000094
  0
LINE
  5
13C
100
AcDbEntity
  8
0
  6
ByLayer
 62
    7
370
   30
100
AcDbLine
 10
428.3725174611604
 20
120.5409586026076
 11
559.7407504611605
 21
120.5409586026076
  0
LINE
  5
13D
100
AcDbEntity
  8
0
  6
ByLayer
 62
    7
370
   30
100
AcDbLine
 10
562.7540254611604
 20
117.2971846026076
 11
561.4775664611606
 21
119.5326726026076
  0
ARC
  5
13E
100
AcDbEntity
  8
0
  6
ByLayer
 62
    7
370
   30
100
AcDbCircle
 10
428.3725174611604
 20
118.5409586026076
 40
2
100
AcDbArc
 50
90.00000299999932
 51
150.2737649999998
  0
LINE
  5
13F
100
AcDbEntity
  8
0
  6
ByLayer
 62
    7
370
   30
100
AcDbLine
 10
425.3592424611604
 20
117.2971846026076
 11
426.6357084611604
 21
119.5326726026076
  0
ARC
  5
140
100
AcDbEntity
  8
0
  6
ByLayer
 62
    7
370
   30
100
AcDbCircle
 10
419.6690564611605
 20
118.5409586026076
 40
2
100
AcDbArc
 50
31.07180800000067
 51
90.00000300000094
  0
LINE
  5
141
100
AcDbEntity
  8
0
  6
ByLayer
 62
    7
370
   30
100
AcDbLine
 10
422.7718554611605
 20
117.2667886026076
 11
421.3820994611605
 21
119.5731856026076
  0
LINE
  5
142
100
AcDbEntity
  8
0
  6
ByLayer
 62
    7
370
   30
100
AcDbLine
 10
373.0566374611604
 20
120.5409586026076
 11
419.6690564611605
 21
120.5409586026076
  0
ARC
  5
143
100
AcDbEntity
  8
0
  6
ByLayer
 62
    7
370
   30
100
AcDbCircle
 10
424.0566374611604
 20
118.0409586026076
 40
1.5
100
AcDbArc
 50
211.0718099999999
 51
330.2737599999991
  0
ARC
  5
144
100
AcDbEntity
  8
0
  6
ByLayer
 62
    7
370
   30
100
AcDbCircle
 10
564.0566374611604
 20
118.0409586026076
 40
1.5
100
AcDbArc
 50
209.7262350000001
 51
328.928192
  0
ARC
  5
145
100
AcDbEntity
  8
0
  6
ByLayer
 62
    7
370
   30
100
AcDbCircle
 10
373.0566374611604
 20
115.5409586026076
 40
5
100
AcDbArc
 50
90.00000300000031
 51
180.0000049999997
  0
LINE
  5
146
100
AcDbEntity
  8
0
  6
ByLayer
 62
    7
370
   30
100
AcDbLine
 10
368.0566374611604
 20
-115.4590413973925
 11
368.0566374611604
 21
115.5409586026076
  0
ARC
  5
147
100
AcDbEntity
  8
0
  6
ByLayer
 62
    7
370
   30
100
AcDbCircle
 10
615.0566374611604
 20
115.5409586026076
 40
5
100
AcDbArc
 50
0
 51
90.00000300000031
  0
LINE
  5
148
100
AcDbEntity
  8
0
  6
ByLayer
 62
    7
370
   30
100
AcDbLine
 10
620.0566374611604
 20
115.5409586026076
 11
620.0566374611604
 21
-115.4590413973925
  0
ARC
  5
149
100
AcDbEntity
  8
0
  6
ByLayer
 62
    7
370
   30
100
AcDbCircle
 10
615.0566374611604
 20
-115.4590413973925
 40
5
100
AcDbArc
 50
269.9999969999997
 51
0
  0
LINE
  5
14A
100
AcDbEntity
  8
0
  6
ByLayer
 62
    7
370
   30
100
AcDbLine
 10
615.0566374611604
 20
-120.4590413973925
 11
373.0566374611604
 21
-120.4590413973925
  0
ARC
  5
14B
100
AcDbEntity
  8
0
  6
ByLayer
 62
    7
370
   30
100
AcDbCircle
 10
373.0566374611604
 20
-115.4590413973925
 40
5
100
AcDbArc
 50
180.000005
 51
269.9999969999997
  0
CIRCLE
  5
14C
100
AcDbEntity
  8
0
  6
ByLayer
 62
    7
370
   30
100
AcDbCircle
 10
420.5566374611604
 20
-115.4590413973925
 40
1.75
  0
CIRCLE
  5
14D
100
AcDbEntity
  8
0
  6
ByLayer
 62
    7
370
   30
100
AcDbCircle
 10
566.0566374611604
 20
-115.4590413973925
 40
1.75
  0
ENDSEC
  0
SECTION
  2
OBJECTS
  0
DICTIONARY
  5
C
330
0
100
AcDbDictionary
281
    1
  3
ACAD_GROUP
350
D
  0
DICTIONARY
  5
D
330
C
100
AcDbDictionary
281
    1
  0
ENDSEC
  0
EOF
