<?xml version="1.0" encoding="UTF-8" standalone="no"?>
<svg
   xmlns:dc="http://purl.org/dc/elements/1.1/"
   xmlns:cc="http://creativecommons.org/ns#"
   xmlns:rdf="http://www.w3.org/1999/02/22-rdf-syntax-ns#"
   xmlns:svg="http://www.w3.org/2000/svg"
   xmlns="http://www.w3.org/2000/svg"
   xmlns:sodipodi="http://sodipodi.sourceforge.net/DTD/sodipodi-0.dtd"
   xmlns:inkscape="http://www.inkscape.org/namespaces/inkscape"
   version="1.1"
   width="252.29108mm"
   height="241.29106mm"
   viewBox="0 0 99327.192 94996.475"
   id="svg3006"
   sodipodi:docname="steel-sheet.svg"
   inkscape:version="0.92.1 r15371"
   inkscape:export-filename="/home/dan/kicad/img/heatbed-F-vanilla12V.png"
   inkscape:export-xdpi="600.02789"
   inkscape:export-ydpi="600.02789">
  <metadata
     id="metadata3012">
    <rdf:RDF>
      <cc:Work
         rdf:about="">
        <dc:format>image/svg+xml</dc:format>
        <dc:type
           rdf:resource="http://purl.org/dc/dcmitype/StillImage" />
        <dc:title>Heatbed-MK52</dc:title>
        <cc:license
           rdf:resource="http://creativecommons.org/licenses/by-sa/4.0/" />
        <dc:creator>
          <cc:Agent>
            <dc:title>#OK1HRA</dc:title>
          </cc:Agent>
        </dc:creator>
        <dc:publisher>
          <cc:Agent>
            <dc:title>PRUSA research</dc:title>
          </cc:Agent>
        </dc:publisher>
        <dc:date>2017-12-04</dc:date>
      </cc:Work>
      <cc:License
         rdf:about="http://creativecommons.org/licenses/by-sa/4.0/">
        <cc:permits
           rdf:resource="http://creativecommons.org/ns#Reproduction" />
        <cc:permits
           rdf:resource="http://creativecommons.org/ns#Distribution" />
        <cc:requires
           rdf:resource="http://creativecommons.org/ns#Notice" />
        <cc:requires
           rdf:resource="http://creativecommons.org/ns#Attribution" />
        <cc:permits
           rdf:resource="http://creativecommons.org/ns#DerivativeWorks" />
        <cc:requires
           rdf:resource="http://creativecommons.org/ns#ShareAlike" />
      </cc:License>
    </rdf:RDF>
  </metadata>
  <defs
     id="defs3010">
    <clipPath
       clipPathUnits="userSpaceOnUse"
       id="clipPath20">
      <path
         d="M 180,180 H 5760 V 8100 H 180 Z"
         id="path18-3"
         inkscape:connector-curvature="0" />
    </clipPath>
    <clipPath
       clipPathUnits="userSpaceOnUse"
       id="clipPath2413">
      <path
         d="M 180,180 H 5760 V 8100 H 180 Z"
         id="path2411"
         inkscape:connector-curvature="0" />
    </clipPath>
    <marker
       style="overflow:visible"
       refY="0"
       refX="0"
       orient="auto"
       id="DistanceX">
      <path
         id="path10734"
         style="stroke:#000000;stroke-width:0.5"
         d="M 3,-3 -3,3 M 0,-5 V 5"
         inkscape:connector-curvature="0" />
    </marker>
    <pattern
       y="0"
       x="0"
       width="8"
       patternUnits="userSpaceOnUse"
       id="Hatch"
       height="8">
      <path
         id="path10737"
         stroke-width="0.25"
         stroke="#000000"
         linecap="square"
         d="M8 4 l-4,4" />
      <path
         id="path10739"
         stroke-width="0.25"
         stroke="#000000"
         linecap="square"
         d="M6 2 l-4,4" />
      <path
         id="path10741"
         stroke-width="0.25"
         stroke="#000000"
         linecap="square"
         d="M4 0 l-4,4" />
    </pattern>
    <symbol
       id="*Model_Space" />
    <symbol
       id="*Paper_Space" />
  </defs>
  <sodipodi:namedview
     pagecolor="#ffffff"
     bordercolor="#666666"
     borderopacity="1"
     objecttolerance="10"
     gridtolerance="10"
     guidetolerance="10"
     inkscape:pageopacity="0"
     inkscape:pageshadow="2"
     inkscape:window-width="1920"
     inkscape:window-height="1018"
     id="namedview3008"
     showgrid="false"
     inkscape:zoom="0.37469307"
     inkscape:cx="731.60536"
     inkscape:cy="857.49097"
     inkscape:window-x="0"
     inkscape:window-y="25"
     inkscape:window-maximized="1"
     inkscape:current-layer="layer5"
     units="mm"
     inkscape:document-units="mm"
     fit-margin-top="0"
     fit-margin-left="0"
     fit-margin-right="0"
     fit-margin-bottom="0"
     inkscape:measure-start="0,0"
     inkscape:measure-end="0,0" />
  <title
     id="title2">Heatbed-MK52</title>
  <desc
     id="desc4">Picture generated by PCBNEW </desc>
  <g
     style="fill:#000000;fill-opacity:1;stroke:#000000;stroke-linecap:round;stroke-linejoin:round;stroke-opacity:1"
     id="g6"
     transform="translate(-20603.982,-20005.417)" />
  <g
     style="fill:#000000;fill-opacity:0;stroke:#000000;stroke-width:-0.0003937;stroke-linecap:round;stroke-linejoin:round;stroke-opacity:1"
     id="g8"
     transform="translate(-20603.982,-20005.417)" />
  <g
     style="fill:#000000;fill-opacity:1;stroke:#000000;stroke-width:59.05509949;stroke-linecap:round;stroke-linejoin:round;stroke-opacity:1"
     id="g514"
     transform="translate(-20603.982,-20005.417)" />
  <g
     inkscape:groupmode="layer"
     id="layer5"
     inkscape:label="steel"
     style="display:inline"
     transform="translate(-374.74896,-6246.2994)">
    <path
       id="path5008"
       style="display:inline;opacity:1;fill:none;fill-opacity:1;stroke:#000000;stroke-width:196.85038757;stroke-linecap:round;stroke-linejoin:round;stroke-miterlimit:4;stroke-dasharray:none;stroke-dashoffset:0;paint-order:markers fill stroke"
       d="M 823.45996,11830.87 V 94428.864 M 99252.252,11829.897 H 824.43434 M 99251.761,13799.868 H 826.76734 M 99252.252,94508.838 H 824.43434 M 99252.252,92539.855 H 824.43434 M 99251.761,33484.868 H 826.76734 m 0,19684.999 H 99251.761 m 0.491,19684.999 H 824.43434 M 40196.764,11830.87 V 94507.864 M 20511.765,11830.87 v 82597.994 m 39369.991,79 V 11830.87 M 99251.761,94507.864 V 11830.871 M 79566.762,94507.864 V 11830.87"
       inkscape:connector-curvature="0"
       sodipodi:nodetypes="cccccccccccccccccccccccccc" />
    <path
       id="path7080"
       style="fill:none;stroke:#000000;stroke-width:196.85038757;stroke-linecap:round;stroke-miterlimit:4;stroke-dasharray:none"
       d="M 76073.139,10195.424 V 8966.4348 m 0,614.4938 h 819.337 m 0,-614.4938 v 1228.9892 m 1031.772,0 h -409.63 m 0,0 -204.797,-204.8588 m 0,0 v -409.6366 m 0,0 204.797,-204.8556 m 0,0 h 409.63 m 0,0 204.854,204.8556 m 0,0 v 204.8576 m 0,0 h -819.281 m 1441.478,-409.7132 h 409.65 m 0,0 204.852,204.8556 m 0,0 v 614.4954 m 0,0 h -614.502 m 0,0 -204.854,-204.8588 m 0,0 204.854,-204.779 m 0,0 h 614.502 m 622.12,-614.4938 v 819.2728 m 0,0 204.855,204.8588 m -409.631,-819.351 h 409.631 m 414.773,-409.6382 v 1228.9892 m 0,0 h 614.503 m 0,0 204.852,-204.8588 m 0,0 v -409.6366 m 0,0 -204.852,-204.8556 m 0,0 h -614.503 m 1851.183,819.351 h -409.706 m 0,0 -204.777,-204.8588 m 0,0 v -409.6366 m 0,0 204.777,-204.8556 m 0,0 h 409.706 m 0,0 204.796,204.8556 m 0,0 v 204.8576 m 0,0 h -819.279 m 2055.961,-819.3514 v 1228.9892 m 0,0 h -614.483 m 0,0 -204.854,-204.8588 m 0,0 v -409.6366 m 0,0 204.854,-204.8556 m 0,0 h 614.483 m 2473.325,-204.7806 -204.853,-204.8576 m 0,0 h -409.652 m 0,0 -204.853,204.8576 m 0,0 v 204.7806 m 0,0 204.853,204.8556 m 0,0 h 409.652 m 0,0 204.853,204.8576 m 0,0 v 204.779 m 0,0 -204.853,204.8588 m 0,0 h -409.652 m 0,0 -204.853,-204.8588 m 1441.477,-819.2728 v 819.2728 m 0,0 204.855,204.8588 m -409.631,-819.351 h 409.631 m 1029.276,819.351 h -409.631 m 0,0 -204.872,-204.8588 m 0,0 v -409.6366 m 0,0 204.872,-204.8556 m 0,0 h 409.631 m 0,0 204.853,204.8556 m 0,0 v 204.8576 m 0,0 h -819.356 m 1851.203,409.6378 h -409.726 m 0,0 -204.777,-204.8588 m 0,0 v -409.6366 m 0,0 204.777,-204.8556 m 0,0 h 409.726 m 0,0 204.777,204.8556 m 0,0 v 204.8576 m 0,0 h -819.28 m 1236.622,-819.3514 h 204.856 m 0,0 v 1228.9892 m -204.856,0 h 409.708 m 2470.753,-1024.1316 -204.853,-204.8576 m 0,0 h -409.649 m 0,0 -204.854,204.8576 m 0,0 v 204.7806 m 0,0 204.854,204.8556 m 0,0 h 409.649 m 0,0 204.853,204.8576 m 0,0 v 204.779 m 0,0 -204.853,204.8588 m 0,0 h -409.649 m 0,0 -204.854,-204.8588 M 93386.41,8966.4348 v 1228.9892 m 0,-614.4954 204.777,-204.8556 m 0,0 h 409.706 m 0,0 204.778,204.8556 m 0,0 v 614.4954 m 1031.847,0 h -409.631 m 0,0 -204.874,-204.8588 m 0,0 v -409.6366 m 0,0 204.874,-204.8556 m 0,0 h 409.631 m 0,0 204.852,204.8556 m 0,0 v 204.8576 m 0,0 h -819.357 m 1851.205,409.6378 h -409.651 m 0,0 -204.853,-204.8588 m 0,0 v -409.6366 m 0,0 204.853,-204.8556 m 0,0 h 409.651 m 0,0 204.854,204.8556 m 0,0 v 204.8576 m 0,0 h -819.358 m 1441.478,-614.4938 v 819.2728 m 0,0 204.853,204.8588 m -409.63,-819.351 h 409.63"
       inkscape:connector-curvature="0"
       sodipodi:nodetypes="cccccccccccccccccccccccccccccccccccccccccccccccccccccccccccccccccccccccccccccccccccccccccccccccccccccccccccccccccccccccccccccccccccccccccccccccccccccccccccccccccccccccccccccccccccccccccccccccccccccccccccccccccccccccccc" />
    <path
       id="path10709"
       style="fill:none;stroke:#000000;stroke-width:196.85038757;stroke-linecap:round;stroke-miterlimit:4;stroke-dasharray:none"
       d="m 4574.6837,90131.01 h 92.5108 m 7215.5725,765.857 h 581.406 m -775.177,193.759 193.771,-193.759 m 0,387.586 -193.771,-193.827 m 775.177,193.827 h -581.406 m 581.406,-581.416 v 581.416 m -193.826,-775.243 193.826,193.827 m -581.406,-193.827 h 387.58 m -976.229,387.657 h -775.232 m 775.232,-193.83 v 193.83 m -193.826,-387.657 193.826,193.827 m -581.405,-193.827 h 387.579 m -581.406,193.827 193.827,-193.827 m -193.827,581.416 v -387.589 m 193.827,581.416 -193.827,-193.827 m 581.406,193.827 h -387.579 m -781.3327,-775.243 h 193.8447 m -581.4244,387.657 387.5797,-387.657 m -387.5797,775.243 v -775.243 m -976.3014,387.657 h 581.4237 m -775.2498,193.759 193.8261,-193.759 m 0,387.586 -193.8261,-193.827 m 775.2498,193.827 h -581.4237 m 581.4237,-581.416 v 581.416 m -193.8257,-775.243 193.8257,193.827 m -581.4237,-193.827 h 387.598 m -2531.5764,0 h 387.6522 m -193.8261,581.416 193.8261,193.827 m -193.8261,-969.002 v 775.175 m -588.6311,-387.589 v 581.416 m -193.8261,-775.243 193.8261,193.827 m -775.2502,-193.827 h 581.4241 m -581.4241,775.243 v -775.243 m -780.0246,775.243 h 387.5797 m -193.8262,-775.243 v 775.243 M 4473.441,90509.21 h 193.7535 m -781.2409,0 h 193.7536 m -581.3515,387.657 387.5979,-387.657 m -387.5979,775.243 v -775.243 m -588.7037,387.657 h -581.4058 m 775.232,-193.83 -193.8262,193.83 m 193.8262,-581.416 v 387.586 m -193.8262,-581.416 193.8262,193.83 m -775.232,-193.83 h 581.4058 m -581.4058,1162.832 v -1162.832"
       inkscape:connector-curvature="0" />
    <g
       id="g10834"
       transform="matrix(104.16666,0,0,104.16666,-5692.8845,-28271.525)"
       style="stroke:#ff0000">
      <g
         id="g10748"
         inkscape:label="0"
         style="stroke:#ff0000" />
      <g
         id="g10794"
         inkscape:label="obrys_MK10"
         style="stroke:#ff0000">
        <path
           id="path10792"
           style="fill:none;stroke:#ff0000;stroke-width:1.10000002;stroke-linecap:round"
           d="m 813.75997,1223.8897 a 6.614175,6.614175 0 1 0 -13.22835,0 6.614175,6.614175 0 1 0 13.22835,0 z m -549.92126,0 a 6.614175,6.614175 0 1 0 -13.22835,0 6.614175,6.614175 0 1 0 13.22835,0 z m -205.03937,0 a 18.897638,18.897638 0 0 0 18.897637,18.8976 m 914.645673,0 H 77.696978 m 914.645672,0 a 18.897638,18.897638 0 0 0 18.89765,-18.8976 m 0,-873.07087 v 873.07087 m 0,-873.07087 A 18.897638,18.897638 0 0 0 992.34265,331.92119 M 58.79934,1223.8897 V 350.81883 M 77.696977,331.92119 A 18.897638,18.897638 0 0 0 58.79934,350.81883 m 735.86416,-6.63767 a 5.669291,5.669291 0 0 0 9.77911,0.11484 m -538.84559,0 a 5.669291,5.669291 0 0 0 9.7791,-0.11484 M 77.696978,331.92119 H 253.8699 m 11.72711,12.37482 -5.25262,-8.7171 m 0,2e-5 a 7.559055,7.559055 0 0 0 -6.47449,-3.65774 m 21.50622,12.25993 4.82443,-8.44909 m 6.56432,-3.81084 a 7.559055,7.559055 0 0 0 -6.56432,3.81085 m 514.46293,8.44908 -4.82441,-8.44909 m -503.0742,-3.81084 h 496.50986 m 6.56432,3.81085 a 7.559055,7.559055 0 0 0 -6.56432,-3.81085 m 32.89497,0 h 176.17295 m -187.90001,12.37482 5.25256,-8.7171 m 6.47449,-3.65772 a 7.559055,7.559055 0 0 0 -6.47449,3.65774"
           inkscape:connector-curvature="0" />
      </g>
    </g>
  </g>
</svg>
